MerriweatherSans-Italic.ufo
<glyph name="exclam" format="1">
  <advance width="686"/>
  <unicode hex="0021"/>
  <outline>
    <contour>
      <point x="246" y="488" type="line"/>
      <point x="404" y="488" type="line"/>
      <point x="627" y="1778" type="line"/>
      <point x="402" y="1778" type="line"/>
    </contour>
    <contour>
      <point x="131" y="103" type="curve" smooth="yes"/>
      <point x="121" y="25"/>
      <point x="180" y="-22"/>
      <point x="250" y="-22" type="curve" smooth="yes"/>
      <point x="338" y="-22"/>
      <point x="415" y="36"/>
      <point x="427" y="125" type="curve" smooth="yes"/>
      <point x="436" y="193"/>
      <point x="402" y="250"/>
      <point x="308" y="250" type="curve" smooth="yes"/>
      <point x="223" y="250"/>
      <point x="142" y="186"/>
    </contour>
  </outline>
</glyph>
<glyph name="dollar" format="1">
  <advance width="1204"/>
  <unicode hex="0024"/>
  <outline>
    <contour>
      <point x="669" y="1517" type="line"/>
      <point x="669" y="1517"/>
      <point x="824" y="1516"/>
      <point x="849" y="1516" type="curve"/>
      <point x="884" y="1729" type="line"/>
      <point x="703" y="1729" type="line"/>
    </contour>
    <contour>
      <point x="419" y="-5" type="curve"/>
      <point x="383" y="-230" type="line"/>
      <point x="563" y="-230" type="line"/>
      <point x="600" y="-4" type="line"/>
      <point x="575" y="-4"/>
      <point x="419" y="-5"/>
    </contour>
    <contour>
      <point x="129" y="68" type="line"/>
      <point x="173" y="31"/>
      <point x="329" y="-23"/>
      <point x="494" y="-23" type="curve" smooth="yes"/>
      <point x="797" y="-23"/>
      <point x="1026" y="127"/>
      <point x="1021" y="421" type="curve" smooth="yes"/>
      <point x="1017" y="627"/>
      <point x="861" y="745"/>
      <point x="715" y="844" type="curve"/>
      <point x="544" y="960"/>
      <point x="474" y="1028"/>
      <point x="481" y="1188" type="curve" smooth="yes"/>
      <point x="489" y="1359"/>
      <point x="642" y="1394"/>
      <point x="761" y="1394" type="curve" smooth="yes"/>
      <point x="837" y="1394"/>
      <point x="965" y="1374"/>
      <point x="1028" y="1309" type="curve"/>
      <point x="1091" y="1460" type="line"/>
      <point x="1040" y="1497"/>
      <point x="934" y="1545"/>
      <point x="748" y="1545" type="curve" smooth="yes"/>
      <point x="477" y="1545"/>
      <point x="278" y="1395"/>
      <point x="283" y="1136" type="curve" smooth="yes"/>
      <point x="287" y="914"/>
      <point x="445" y="787"/>
      <point x="598" y="686" type="curve"/>
      <point x="763" y="577"/>
      <point x="815" y="485"/>
      <point x="815" y="373" type="curve" smooth="yes"/>
      <point x="815" y="198"/>
      <point x="656" y="132"/>
      <point x="497" y="132" type="curve" smooth="yes"/>
      <point x="371" y="132"/>
      <point x="221" y="187"/>
      <point x="184" y="228" type="curve"/>
    </contour>
  </outline>
</glyph>
<glyph name="percent" format="1">
  <advance width="1911"/>
  <unicode hex="0025"/>
  <outline>
    <contour>
      <point x="396" y="0" type="line"/>
      <point x="555" y="0" type="line"/>
      <point x="1502" y="1530" type="line"/>
      <point x="1343" y="1530" type="line"/>
    </contour>
    <contour>
      <point x="479" y="745" type="curve" smooth="yes"/>
      <point x="731" y="745"/>
      <point x="891" y="966"/>
      <point x="891" y="1185" type="curve" smooth="yes"/>
      <point x="891" y="1357"/>
      <point x="812" y="1480"/>
      <point x="614" y="1480" type="curve" smooth="yes"/>
      <point x="375" y="1480"/>
      <point x="201" y="1267"/>
      <point x="201" y="1055" type="curve" smooth="yes"/>
      <point x="201" y="879"/>
      <point x="296" y="745"/>
    </contour>
    <contour>
      <point x="508" y="868" type="curve" smooth="yes"/>
      <point x="415" y="868"/>
      <point x="362" y="945"/>
      <point x="362" y="1057" type="curve" smooth="yes"/>
      <point x="362" y="1175"/>
      <point x="435" y="1358"/>
      <point x="586" y="1358" type="curve" smooth="yes"/>
      <point x="672" y="1358"/>
      <point x="721" y="1288"/>
      <point x="721" y="1177" type="curve" smooth="yes"/>
      <point x="721" y="1063"/>
      <point x="657" y="868"/>
    </contour>
    <contour>
      <point x="1037" y="374" type="curve" smooth="yes"/>
      <point x="1037" y="198"/>
      <point x="1132" y="64"/>
      <point x="1315" y="64" type="curve" smooth="yes"/>
      <point x="1567" y="64"/>
      <point x="1727" y="285"/>
      <point x="1727" y="504" type="curve" smooth="yes"/>
      <point x="1727" y="676"/>
      <point x="1648" y="799"/>
      <point x="1450" y="799" type="curve" smooth="yes"/>
      <point x="1211" y="799"/>
      <point x="1037" y="586"/>
    </contour>
    <contour>
      <point x="1198" y="376" type="curve" smooth="yes"/>
      <point x="1198" y="494"/>
      <point x="1271" y="677"/>
      <point x="1422" y="677" type="curve" smooth="yes"/>
      <point x="1508" y="677"/>
      <point x="1557" y="607"/>
      <point x="1557" y="496" type="curve" smooth="yes"/>
      <point x="1557" y="382"/>
      <point x="1493" y="187"/>
      <point x="1344" y="187" type="curve" smooth="yes"/>
      <point x="1251" y="187"/>
      <point x="1198" y="264"/>
    </contour>
  </outline>
</glyph>
<glyph name="ampersand" format="1">
  <advance width="1534"/>
  <unicode hex="0026"/>
  <outline>
    <contour>
      <point x="94" y="368" type="curve" smooth="yes"/>
      <point x="94" y="85"/>
      <point x="366" y="-17"/>
      <point x="641" y="-17" type="curve" smooth="yes"/>
      <point x="1047" y="-17"/>
      <point x="1290" y="205"/>
      <point x="1290" y="586" type="curve" smooth="yes"/>
      <point x="1290" y="673"/>
      <point x="1268" y="722"/>
      <point x="1249" y="754" type="curve"/>
      <point x="1058" y="754" type="line"/>
      <point x="1076" y="714"/>
      <point x="1109" y="645"/>
      <point x="1109" y="542" type="curve" smooth="yes"/>
      <point x="1109" y="274"/>
      <point x="919" y="123"/>
      <point x="657" y="123" type="curve" smooth="yes"/>
      <point x="486" y="123"/>
      <point x="298" y="181"/>
      <point x="298" y="372" type="curve" smooth="yes"/>
      <point x="298" y="747"/>
      <point x="1105" y="766"/>
      <point x="1105" y="1237" type="curve" smooth="yes"/>
      <point x="1105" y="1373"/>
      <point x="982" y="1546"/>
      <point x="749" y="1546" type="curve" smooth="yes"/>
      <point x="508" y="1546"/>
      <point x="335" y="1369"/>
      <point x="335" y="1128" type="curve" smooth="yes"/>
      <point x="335" y="985"/>
      <point x="404" y="801"/>
      <point x="468" y="694" type="curve"/>
      <point x="597" y="478"/>
      <point x="686" y="309"/>
      <point x="953" y="77" type="curve" smooth="yes"/>
      <point x="1027" y="12"/>
      <point x="1149" y="-20"/>
      <point x="1236" y="-20" type="curve" smooth="yes"/>
      <point x="1274" y="-20"/>
      <point x="1334" y="-17"/>
      <point x="1385" y="-6" type="curve"/>
      <point x="1406" y="114" type="line"/>
      <point x="1400" y="114"/>
      <point x="1386" y="114"/>
      <point x="1380" y="114" type="curve" smooth="yes"/>
      <point x="1253" y="111"/>
      <point x="1161" y="132"/>
      <point x="1070" y="206" type="curve" smooth="yes"/>
      <point x="885" y="356"/>
      <point x="739" y="564"/>
      <point x="608" y="801" type="curve"/>
      <point x="573" y="859"/>
      <point x="515" y="974"/>
      <point x="515" y="1134" type="curve" smooth="yes"/>
      <point x="515" y="1279"/>
      <point x="599" y="1413"/>
      <point x="742" y="1413" type="curve" smooth="yes"/>
      <point x="857" y="1413"/>
      <point x="919" y="1331"/>
      <point x="919" y="1216" type="curve" smooth="yes"/>
      <point x="919" y="848"/>
      <point x="94" y="819"/>
    </contour>
    <contour>
      <point x="987" y="661" type="line"/>
      <point x="1016" y="675"/>
      <point x="1074" y="684"/>
      <point x="1136" y="684" type="curve" smooth="yes"/>
      <point x="1430" y="684" type="line"/>
      <point x="1439" y="829" type="line"/>
      <point x="1152" y="830" type="line" smooth="yes"/>
      <point x="1064" y="830"/>
      <point x="1015" y="813"/>
      <point x="997" y="795" type="curve"/>
    </contour>
  </outline>
</glyph>
<glyph name="quotesingle" format="1">
  <advance width="524"/>
  <unicode hex="0027"/>
  <outline>
    <contour>
      <point x="224" y="966" type="line"/>
      <point x="364" y="966" type="line"/>
      <point x="528" y="1687" type="line"/>
      <point x="301" y="1687" type="line"/>
    </contour>
  </outline>
</glyph>
<glyph name="comma" format="1">
  <advance width="526"/>
  <unicode hex="002C"/>
  <outline>
    <contour>
      <point x="165" y="-108" type="curve" smooth="yes"/>
      <point x="165" y="-233"/>
      <point x="91" y="-342"/>
      <point x="-9" y="-391" type="curve"/>
      <point x="-12" y="-412" type="line"/>
      <point x="61" y="-501" type="line"/>
      <point x="244" y="-435"/>
      <point x="373" y="-263"/>
      <point x="373" y="-41" type="curve" smooth="yes"/>
      <point x="373" y="61"/>
      <point x="335" y="207"/>
      <point x="182" y="265" type="curve"/>
      <point x="76" y="137" type="line"/>
      <point x="69" y="83" type="line"/>
      <point x="128" y="65"/>
      <point x="165" y="-20"/>
    </contour>
  </outline>
</glyph>
<glyph name="hyphen" format="1">
  <advance width="1266"/>
  <unicode hex="002D"/>
  <outline>
    <contour>
      <point x="218" y="693" type="line"/>
      <point x="1055" y="693" type="line"/>
      <point x="1073" y="851" type="line"/>
      <point x="236" y="851" type="line"/>
    </contour>
  </outline>
</glyph>
<glyph name="period" format="1">
  <advance width="526"/>
  <unicode hex="002E"/>
  <outline>
    <contour>
      <point x="89" y="90" type="curve" smooth="yes"/>
      <point x="89" y="24"/>
      <point x="143" y="-22"/>
      <point x="208" y="-22" type="curve" smooth="yes"/>
      <point x="303" y="-22"/>
      <point x="365" y="38"/>
      <point x="365" y="138" type="curve" smooth="yes"/>
      <point x="365" y="197"/>
      <point x="331" y="250"/>
      <point x="246" y="250" type="curve" smooth="yes"/>
      <point x="151" y="250"/>
      <point x="89" y="173"/>
    </contour>
  </outline>
</glyph>
<glyph name="eight" format="1">
  <advance width="1270"/>
  <unicode hex="0038"/>
  <outline>
    <contour>
      <point x="123" y="352" type="curve" smooth="yes"/>
      <point x="123" y="105"/>
      <point x="351" y="-16"/>
      <point x="557" y="-16" type="curve" smooth="yes"/>
      <point x="849" y="-16"/>
      <point x="1084" y="141"/>
      <point x="1084" y="407" type="curve" smooth="yes"/>
      <point x="1084" y="575"/>
      <point x="957" y="701"/>
      <point x="811" y="803" type="curve"/>
      <point x="981" y="858"/>
      <point x="1148" y="1037"/>
      <point x="1148" y="1240" type="curve" smooth="yes"/>
      <point x="1148" y="1442"/>
      <point x="980" y="1569"/>
      <point x="764" y="1569" type="curve" smooth="yes"/>
      <point x="497" y="1569"/>
      <point x="297" y="1423"/>
      <point x="297" y="1161" type="curve" smooth="yes"/>
      <point x="297" y="1008"/>
      <point x="381" y="909"/>
      <point x="490" y="821" type="curve"/>
      <point x="297" y="739"/>
      <point x="123" y="566"/>
    </contour>
    <contour>
      <point x="709" y="879" type="curve"/>
      <point x="586" y="967"/>
      <point x="498" y="1059"/>
      <point x="498" y="1197" type="curve" smooth="yes"/>
      <point x="498" y="1331"/>
      <point x="601" y="1440"/>
      <point x="742" y="1440" type="curve" smooth="yes"/>
      <point x="853" y="1440"/>
      <point x="951" y="1366"/>
      <point x="951" y="1225" type="curve" smooth="yes"/>
      <point x="951" y="1067"/>
      <point x="846" y="940"/>
    </contour>
    <contour>
      <point x="335" y="377" type="curve" smooth="yes"/>
      <point x="339" y="540"/>
      <point x="453" y="679"/>
      <point x="593" y="748" type="curve"/>
      <point x="766" y="633"/>
      <point x="868" y="517"/>
      <point x="868" y="369" type="curve" smooth="yes"/>
      <point x="868" y="225"/>
      <point x="751" y="120"/>
      <point x="592" y="120" type="curve" smooth="yes"/>
      <point x="436" y="120"/>
      <point x="335" y="226"/>
    </contour>
  </outline>
</glyph>
<glyph name="nine" format="1">
  <advance width="1263"/>
  <unicode hex="0039"/>
  <outline>
    <contour>
      <point x="203" y="-313" type="curve"/>
      <point x="247" y="-428" type="line"/>
      <point x="740" y="-291"/>
      <point x="1104" y="140"/>
      <point x="1104" y="654" type="curve"/>
      <point x="1104" y="927"/>
      <point x="965" y="1163"/>
      <point x="691" y="1163" type="curve" smooth="yes"/>
      <point x="332" y="1163"/>
      <point x="139" y="834"/>
      <point x="139" y="542" type="curve" smooth="yes"/>
      <point x="139" y="342"/>
      <point x="242" y="148"/>
      <point x="518" y="148" type="curve" smooth="yes"/>
      <point x="669" y="148"/>
      <point x="767" y="212"/>
      <point x="829" y="278" type="curve"/>
      <point x="735" y="27"/>
      <point x="504" y="-204"/>
    </contour>
    <contour>
      <point x="338" y="571" type="curve" smooth="yes"/>
      <point x="338" y="750"/>
      <point x="422" y="1025"/>
      <point x="645" y="1025" type="curve" smooth="yes"/>
      <point x="838" y="1025"/>
      <point x="907" y="855"/>
      <point x="907" y="673" type="curve"/>
      <point x="907" y="601"/>
      <point x="899" y="545"/>
      <point x="880" y="460" type="curve"/>
      <point x="840" y="410"/>
      <point x="747" y="301"/>
      <point x="566" y="301" type="curve" smooth="yes"/>
      <point x="439" y="301"/>
      <point x="338" y="379"/>
    </contour>
  </outline>
</glyph>
<glyph name="equal" format="1">
  <advance width="1063"/>
  <unicode hex="003D"/>
  <outline>
    <contour>
      <point x="96" y="339" type="line"/>
      <point x="911" y="339" type="line"/>
      <point x="929" y="496" type="line"/>
      <point x="114" y="496" type="line"/>
    </contour>
    <contour>
      <point x="166" y="848" type="line"/>
      <point x="981" y="848" type="line"/>
      <point x="999" y="1005" type="line"/>
      <point x="184" y="1005" type="line"/>
    </contour>
  </outline>
</glyph>
<glyph name="E" format="1">
  <advance width="1138"/>
  <unicode hex="0045"/>
  <outline>
    <contour>
      <point x="110" y="0" type="line"/>
      <point x="1012" y="0" type="line"/>
      <point x="1026" y="165" type="line"/>
      <point x="326" y="149" type="line"/>
      <point x="398" y="710" type="line"/>
      <point x="841" y="695" type="line"/>
      <point x="853" y="861" type="line"/>
      <point x="415" y="854" type="line"/>
      <point x="482" y="1381" type="line"/>
      <point x="1063" y="1373" type="line"/>
      <point x="1070" y="1530" type="line"/>
      <point x="303" y="1530" type="line"/>
    </contour>
    <contour>
      <point x="614" y="-168" type="move" name="btm"/>
    </contour>
    <contour>
      <point x="704" y="1700" type="move" name="top"/>
    </contour>
  </outline>
</glyph>
<glyph name="K" format="1">
  <advance width="1245"/>
  <unicode hex="004B"/>
  <outline>
    <contour>
      <point x="110" y="0" type="line"/>
      <point x="308" y="0" type="line"/>
      <point x="501" y="1530" type="line"/>
      <point x="303" y="1530" type="line"/>
    </contour>
    <contour>
      <point x="765" y="339" type="curve"/>
      <point x="851" y="177"/>
      <point x="930" y="27"/>
      <point x="949" y="0" type="curve"/>
      <point x="1187" y="0" type="line"/>
      <point x="1118" y="103"/>
      <point x="1051" y="219"/>
      <point x="983" y="340" type="curve" smooth="yes"/>
      <point x="884" y="515"/>
      <point x="783" y="704"/>
      <point x="669" y="885" type="curve"/>
      <point x="530" y="767" type="line"/>
      <point x="571" y="702"/>
      <point x="672" y="514"/>
    </contour>
    <contour>
      <point x="314" y="427" type="line"/>
      <point x="1307" y="1530" type="line"/>
      <point x="1075" y="1530" type="line"/>
      <point x="333" y="677" type="line"/>
    </contour>
    <contour>
      <point x="615" y="-168" type="move" name="btm"/>
    </contour>
    <contour>
      <point x="839" y="1702" type="move" name="top"/>
    </contour>
  </outline>
</glyph>
<glyph name="L" format="1">
  <advance width="978"/>
  <unicode hex="004C"/>
  <outline>
    <contour>
      <point x="110" y="0" type="line"/>
      <point x="877" y="0" type="line"/>
      <point x="899" y="170" type="line"/>
      <point x="329" y="165" type="line"/>
      <point x="501" y="1530" type="line"/>
      <point x="303" y="1530" type="line"/>
    </contour>
    <contour>
      <point x="514" y="-168" type="move" name="btm"/>
    </contour>
    <contour>
      <point x="432" y="1702" type="move" name="top"/>
    </contour>
  </outline>
</glyph>
<glyph name="M" format="1">
  <advance width="1791"/>
  <unicode hex="004D"/>
  <outline>
    <contour>
      <point x="48" y="0" type="line"/>
      <point x="248" y="0" type="line"/>
      <point x="486" y="1033" type="line"/>
      <point x="549" y="1402" type="line"/>
      <point x="585" y="1043" type="line"/>
      <point x="746" y="-18" type="line"/>
      <point x="886" y="-3" type="line"/>
      <point x="1323" y="1068" type="line"/>
      <point x="1459" y="1403" type="line"/>
      <point x="1435" y="1020" type="line"/>
      <point x="1385" y="0" type="line"/>
      <point x="1586" y="0" type="line"/>
      <point x="1622" y="1530" type="line"/>
      <point x="1335" y="1530" type="line"/>
      <point x="908" y="470" type="line"/>
      <point x="858" y="301" type="line"/>
      <point x="843" y="470" type="line"/>
      <point x="682" y="1530" type="line"/>
      <point x="428" y="1530" type="line"/>
    </contour>
    <contour>
      <point x="980" y="-168" type="move" name="btm"/>
    </contour>
    <contour>
      <point x="1022" y="1700" type="move" name="top"/>
    </contour>
  </outline>
</glyph>
<glyph name="P" format="1">
  <advance width="1180"/>
  <unicode hex="0050"/>
  <outline>
    <contour>
      <point x="110" y="0" type="line"/>
      <point x="308" y="0" type="line"/>
      <point x="375" y="530" type="line"/>
      <point x="404" y="525"/>
      <point x="462" y="520"/>
      <point x="557" y="520" type="curve" smooth="yes"/>
      <point x="921" y="520"/>
      <point x="1178" y="764"/>
      <point x="1171" y="1157" type="curve" smooth="yes"/>
      <point x="1167" y="1422"/>
      <point x="1003" y="1546"/>
      <point x="714" y="1546" type="curve" smooth="yes"/>
      <point x="605" y="1546"/>
      <point x="517" y="1530"/>
      <point x="419" y="1530" type="curve" smooth="yes"/>
      <point x="303" y="1530" type="line"/>
    </contour>
    <contour>
      <point x="395" y="690" type="curve"/>
      <point x="481" y="1377" type="line"/>
      <point x="539" y="1389"/>
      <point x="629" y="1398"/>
      <point x="682" y="1398" type="curve" smooth="yes"/>
      <point x="882" y="1398"/>
      <point x="973" y="1307"/>
      <point x="970" y="1139" type="curve" smooth="yes"/>
      <point x="965" y="845"/>
      <point x="845" y="679"/>
      <point x="563" y="676" type="curve" smooth="yes"/>
      <point x="510" y="675"/>
      <point x="430" y="682"/>
    </contour>
    <contour>
      <point x="191" y="-170" type="move" name="btm"/>
    </contour>
    <contour>
      <point x="772" y="1700" type="move" name="top"/>
    </contour>
  </outline>
</glyph>
<glyph name="Q" format="1">
  <advance width="1378"/>
  <unicode hex="0051"/>
  <outline>
    <contour>
      <point x="578" y="-12" type="curve"/>
      <point x="547" y="-247"/>
      <point x="716" y="-360"/>
      <point x="908" y="-360" type="curve" smooth="yes"/>
      <point x="1020" y="-360"/>
      <point x="1168" y="-336"/>
      <point x="1217" y="-302" type="curve"/>
      <point x="1217" y="-148" type="line"/>
      <point x="1159" y="-168"/>
      <point x="1067" y="-176"/>
      <point x="1024" y="-176" type="curve" smooth="yes"/>
      <point x="879" y="-176"/>
      <point x="719" y="-167"/>
      <point x="719" y="9" type="curve"/>
      <point x="652" y="68" type="line"/>
      <point x="603" y="8"/>
      <point x="579" y="-4"/>
    </contour>
    <component base="O"/>
    <contour>
      <point x="663" y="-168" type="move" name="btm"/>
    </contour>
    <contour>
      <point x="883" y="1700" type="move" name="top"/>
    </contour>
  </outline>
</glyph>
<glyph name="R" format="1">
  <advance width="1270"/>
  <unicode hex="0052"/>
  <outline>
    <contour>
      <point x="108" y="0" type="line"/>
      <point x="306" y="0" type="line"/>
      <point x="388" y="653" type="line"/>
      <point x="461" y="653"/>
      <point x="592" y="651"/>
      <point x="592" y="651" type="curve"/>
      <point x="684" y="644"/>
      <point x="750" y="482"/>
      <point x="804" y="306" type="curve"/>
      <point x="869" y="123"/>
      <point x="905" y="45"/>
      <point x="933" y="1" type="curve"/>
      <point x="1160" y="-1" type="line"/>
      <point x="1120" y="52"/>
      <point x="1069" y="170"/>
      <point x="966" y="418" type="curve"/>
      <point x="938" y="507"/>
      <point x="866" y="650"/>
      <point x="813" y="691" type="curve"/>
      <point x="804" y="672" type="line"/>
      <point x="1051" y="736"/>
      <point x="1187" y="940"/>
      <point x="1182" y="1192" type="curve" smooth="yes"/>
      <point x="1177" y="1417"/>
      <point x="1016" y="1546"/>
      <point x="712" y="1546" type="curve" smooth="yes"/>
      <point x="593" y="1546"/>
      <point x="518" y="1530"/>
      <point x="403" y="1530" type="curve" smooth="yes"/>
      <point x="301" y="1530" type="line"/>
    </contour>
    <contour>
      <point x="408" y="812" type="curve"/>
      <point x="481" y="1378" type="line"/>
      <point x="521" y="1385"/>
      <point x="633" y="1394"/>
      <point x="690" y="1394" type="curve" smooth="yes"/>
      <point x="869" y="1394"/>
      <point x="963" y="1319"/>
      <point x="967" y="1185" type="curve" smooth="yes"/>
      <point x="973" y="972"/>
      <point x="868" y="809"/>
      <point x="631" y="809" type="curve" smooth="yes"/>
      <point x="588" y="809"/>
      <point x="459" y="809"/>
    </contour>
    <contour>
      <point x="627" y="-170" type="move" name="btm"/>
    </contour>
    <contour>
      <point x="757" y="1700" type="move" name="top"/>
    </contour>
  </outline>
</glyph>
<glyph name="S" format="1">
  <advance width="1044"/>
  <unicode hex="0053"/>
  <outline>
    <contour>
      <point x="29" y="75" type="line"/>
      <point x="73" y="38"/>
      <point x="229" y="-16"/>
      <point x="394" y="-16" type="curve" smooth="yes"/>
      <point x="697" y="-16"/>
      <point x="926" y="127"/>
      <point x="921" y="421" type="curve" smooth="yes"/>
      <point x="917" y="627"/>
      <point x="761" y="745"/>
      <point x="615" y="844" type="curve" smooth="yes"/>
      <point x="444" y="960"/>
      <point x="374" y="1029"/>
      <point x="381" y="1189" type="curve" smooth="yes"/>
      <point x="389" y="1360"/>
      <point x="542" y="1395"/>
      <point x="661" y="1395" type="curve" smooth="yes"/>
      <point x="737" y="1395"/>
      <point x="865" y="1375"/>
      <point x="928" y="1310" type="curve"/>
      <point x="991" y="1461" type="line"/>
      <point x="940" y="1498"/>
      <point x="834" y="1546"/>
      <point x="648" y="1546" type="curve" smooth="yes"/>
      <point x="377" y="1546"/>
      <point x="178" y="1396"/>
      <point x="183" y="1137" type="curve" smooth="yes"/>
      <point x="187" y="915"/>
      <point x="345" y="787"/>
      <point x="498" y="686" type="curve" smooth="yes"/>
      <point x="663" y="577"/>
      <point x="715" y="485"/>
      <point x="715" y="373" type="curve" smooth="yes"/>
      <point x="715" y="198"/>
      <point x="556" y="139"/>
      <point x="397" y="139" type="curve" smooth="yes"/>
      <point x="271" y="139"/>
      <point x="121" y="194"/>
      <point x="84" y="235" type="curve"/>
    </contour>
    <contour>
      <point x="416" y="-170" type="move" name="btm"/>
    </contour>
    <contour>
      <point x="679" y="1700" type="move" name="top"/>
    </contour>
  </outline>
</glyph>
<glyph name="T" format="1">
  <advance width="1122"/>
  <unicode hex="0054"/>
  <outline>
    <contour>
      <point x="381" y="0" type="line"/>
      <point x="579" y="0" type="line"/>
      <point x="754" y="1384" type="line"/>
      <point x="1174" y="1373" type="line"/>
      <point x="1195" y="1530" type="line"/>
      <point x="151" y="1530" type="line"/>
      <point x="129" y="1373" type="line"/>
      <point x="556" y="1384" type="line"/>
    </contour>
    <contour>
      <point x="457" y="-170" type="move" name="btm"/>
    </contour>
    <contour>
      <point x="710" y="1700" type="move" name="top"/>
    </contour>
  </outline>
</glyph>
<glyph name="V" format="1">
  <advance width="1169"/>
  <unicode hex="0056"/>
  <outline>
    <contour>
      <point x="380" y="0" type="line"/>
      <point x="589" y="0" type="line"/>
      <point x="1286" y="1530" type="line"/>
      <point x="1076" y="1530" type="line"/>
      <point x="600" y="429" type="line"/>
      <point x="514" y="207" type="line"/>
      <point x="489" y="429" type="line"/>
      <point x="326" y="1530" type="line"/>
      <point x="128" y="1530" type="line"/>
    </contour>
    <contour>
      <point x="519" y="-170" type="move" name="btm"/>
    </contour>
    <contour>
      <point x="744" y="1700" type="move" name="top"/>
    </contour>
  </outline>
</glyph>
<glyph name="W" format="1">
  <advance width="1773"/>
  <unicode hex="0057"/>
  <outline>
    <contour>
      <point x="358" y="-10" type="line"/>
      <point x="562" y="-10" type="line"/>
      <point x="892" y="850" type="line"/>
      <point x="982" y="1129" type="line"/>
      <point x="940" y="1123" type="line"/>
      <point x="961" y="850" type="line"/>
      <point x="1057" y="-10" type="line"/>
      <point x="1259" y="-10" type="line"/>
      <point x="1888" y="1530" type="line"/>
      <point x="1688" y="1530" type="line"/>
      <point x="1271" y="435" type="line"/>
      <point x="1197" y="220" type="line"/>
      <point x="1182" y="436" type="line"/>
      <point x="1066" y="1530" type="line"/>
      <point x="876" y="1530" type="line"/>
      <point x="913" y="1201" type="line"/>
      <point x="930" y="1389" type="line"/>
      <point x="557" y="435" type="line"/>
      <point x="496" y="220" type="line"/>
      <point x="464" y="436" type="line"/>
      <point x="324" y="1530" type="line"/>
      <point x="126" y="1530" type="line"/>
    </contour>
    <contour>
      <point x="827" y="-170" type="move" name="btm"/>
    </contour>
    <contour>
      <point x="1047" y="1700" type="move" name="top"/>
    </contour>
  </outline>
</glyph>
<glyph name="X" format="1">
  <advance width="1157"/>
  <unicode hex="0058"/>
  <outline>
    <contour>
      <point x="-59" y="0" type="line"/>
      <point x="181" y="0" type="line"/>
      <point x="575" y="620" type="line"/>
      <point x="823" y="0" type="line"/>
      <point x="1051" y="0" type="line"/>
      <point x="704" y="753" type="line"/>
      <point x="1241" y="1530" type="line"/>
      <point x="1017" y="1530" type="line"/>
      <point x="628" y="932" type="line"/>
      <point x="399" y="1530" type="line"/>
      <point x="181" y="1530" type="line"/>
      <point x="499" y="793" type="line"/>
    </contour>
    <contour>
      <point x="489" y="-170" type="move" name="btm"/>
    </contour>
    <contour>
      <point x="748" y="1700" type="move" name="top"/>
    </contour>
  </outline>
</glyph>
<glyph name="Y" format="1">
  <advance width="1083"/>
  <unicode hex="0059"/>
  <outline>
    <contour>
      <point x="380" y="0" type="line"/>
      <point x="568" y="0" type="line"/>
      <point x="644" y="590" type="line"/>
      <point x="1237" y="1530" type="line"/>
      <point x="1025" y="1530" type="line"/>
      <point x="613" y="838" type="line"/>
      <point x="575" y="762" type="line"/>
      <point x="543" y="838" type="line"/>
      <point x="295" y="1530" type="line"/>
      <point x="83" y="1530" type="line"/>
      <point x="456" y="590" type="line"/>
    </contour>
    <contour>
      <point x="462" y="-170" type="move" name="btm"/>
    </contour>
    <contour>
      <point x="686" y="1700" type="move" name="top"/>
    </contour>
  </outline>
</glyph>
<glyph name="bracketleft" format="1">
  <advance width="854"/>
  <unicode hex="005B"/>
  <outline>
    <contour>
      <point x="184" y="63" type="curve"/>
      <point x="181" y="23"/>
      <point x="180" y="-13"/>
      <point x="180" y="-47" type="curve" smooth="yes"/>
      <point x="180" y="-157"/>
      <point x="226" y="-190"/>
      <point x="352" y="-190" type="curve" smooth="yes"/>
      <point x="461" y="-190"/>
      <point x="534" y="-169"/>
      <point x="625" y="-143" type="curve"/>
      <point x="628" y="-115"/>
      <point x="631" y="-86"/>
      <point x="635" y="-57" type="curve"/>
      <point x="548" y="-57"/>
      <point x="448" y="-55"/>
      <point x="360" y="-55" type="curve"/>
      <point x="583" y="1601" type="line"/>
      <point x="858" y="1601" type="line"/>
      <point x="871" y="1688" type="line"/>
      <point x="871" y="1688"/>
      <point x="699" y="1735"/>
      <point x="611" y="1735" type="curve" smooth="yes"/>
      <point x="453" y="1735"/>
      <point x="406" y="1675"/>
      <point x="381" y="1483" type="curve" smooth="yes"/>
      <point x="321" y="1028"/>
      <point x="205" y="430"/>
    </contour>
  </outline>
</glyph>
<glyph name="asciicircum" format="1">
  <advance width="1364"/>
  <unicode hex="005E"/>
  <outline>
    <contour>
      <point x="176" y="510" type="line"/>
      <point x="351" y="510" type="line"/>
      <point x="768" y="1338" type="line"/>
      <point x="970" y="510" type="line"/>
      <point x="1141" y="510" type="line"/>
      <point x="884" y="1530" type="line"/>
      <point x="687" y="1530" type="line"/>
    </contour>
  </outline>
</glyph>
<glyph name="grave" format="1">
  <advance width="541"/>
  <unicode hex="0060"/>
  <outline>
    <contour>
      <point x="425" y="1261" type="curve"/>
      <point x="510" y="1331" type="line"/>
      <point x="222" y="1733" type="line"/>
      <point x="69" y="1596" type="line"/>
      <point x="133" y="1484"/>
      <point x="342" y="1296"/>
    </contour>
    <contour>
      <point x="441" y="1255" type="move" name="_top"/>
    </contour>
  </outline>
</glyph>
<glyph name="b" format="1">
  <advance width="1163"/>
  <unicode hex="0062"/>
  <outline>
    <contour>
      <point x="83" y="-16" type="line"/>
      <point x="286" y="44" type="line"/>
      <point x="385" y="794" type="line"/>
      <point x="394" y="944" type="line"/>
      <point x="432" y="1147" type="line"/>
      <point x="487" y="1638" type="line"/>
      <point x="302" y="1638" type="line"/>
    </contour>
    <contour>
      <point x="422" y="-16" type="curve" smooth="yes"/>
      <point x="873" y="-16"/>
      <point x="1070" y="411"/>
      <point x="1070" y="724" type="curve"/>
      <point x="1070" y="984"/>
      <point x="972" y="1156"/>
      <point x="760" y="1156" type="curve" smooth="yes"/>
      <point x="531" y="1156"/>
      <point x="358" y="939"/>
      <point x="327" y="828" type="curve"/>
      <point x="350" y="708" type="line"/>
      <point x="399" y="804"/>
      <point x="554" y="1004"/>
      <point x="725" y="1004" type="curve" smooth="yes"/>
      <point x="813" y="1004"/>
      <point x="868" y="915"/>
      <point x="868" y="700" type="curve" smooth="yes"/>
      <point x="868" y="463"/>
      <point x="739" y="127"/>
      <point x="453" y="127" type="curve" smooth="yes"/>
      <point x="361" y="127"/>
      <point x="273" y="153"/>
      <point x="228" y="188" type="curve"/>
      <point x="150" y="32" type="line"/>
      <point x="211" y="10"/>
      <point x="332" y="-16"/>
    </contour>
    <contour>
      <point x="809" y="1259" type="move" name="top"/>
    </contour>
  </outline>
</glyph>
<glyph name="d" format="1">
  <advance width="1161"/>
  <unicode hex="0064"/>
  <outline>
    <contour>
      <point x="738" y="0" type="line"/>
      <point x="912" y="0" type="line"/>
      <point x="1133" y="1638" type="line"/>
      <point x="938" y="1638" type="line"/>
      <point x="765" y="365" type="line"/>
      <point x="755" y="207" type="line"/>
    </contour>
    <contour>
      <point x="389" y="-16" type="curve" smooth="yes"/>
      <point x="618" y="-16"/>
      <point x="791" y="209"/>
      <point x="822" y="323" type="curve"/>
      <point x="799" y="443" type="line"/>
      <point x="750" y="344"/>
      <point x="595" y="136"/>
      <point x="424" y="136" type="curve" smooth="yes"/>
      <point x="336" y="136"/>
      <point x="281" y="225"/>
      <point x="281" y="440" type="curve" smooth="yes"/>
      <point x="281" y="677"/>
      <point x="410" y="1013"/>
      <point x="696" y="1013" type="curve" smooth="yes"/>
      <point x="788" y="1013"/>
      <point x="876" y="987"/>
      <point x="921" y="952" type="curve"/>
      <point x="999" y="1108" type="line"/>
      <point x="938" y="1130"/>
      <point x="817" y="1156"/>
      <point x="727" y="1156" type="curve" smooth="yes"/>
      <point x="276" y="1156"/>
      <point x="79" y="729"/>
      <point x="79" y="416" type="curve" smooth="yes"/>
      <point x="79" y="156"/>
      <point x="177" y="-16"/>
    </contour>
    <contour>
      <point x="1064" y="1664" type="move" name="caron"/>
    </contour>
    <contour>
      <point x="453" y="1259" type="move" name="top"/>
    </contour>
  </outline>
</glyph>
<glyph name="e" format="1">
  <advance width="1035"/>
  <unicode hex="0065"/>
  <outline>
    <contour>
      <point x="86" y="434" type="curve" smooth="yes"/>
      <point x="80" y="206"/>
      <point x="196" y="-16"/>
      <point x="479" y="-16" type="curve" smooth="yes"/>
      <point x="673" y="-16"/>
      <point x="832" y="107"/>
      <point x="889" y="186" type="curve"/>
      <point x="834" y="297" type="line"/>
      <point x="720" y="190"/>
      <point x="602" y="138"/>
      <point x="502" y="138" type="curve" smooth="yes"/>
      <point x="318" y="138"/>
      <point x="286" y="303"/>
      <point x="292" y="425" type="curve"/>
      <point x="522" y="441"/>
      <point x="965" y="573"/>
      <point x="965" y="906" type="curve" smooth="yes"/>
      <point x="965" y="1047"/>
      <point x="876" y="1156"/>
      <point x="684" y="1156" type="curve" smooth="yes"/>
      <point x="333" y="1156"/>
      <point x="96" y="835"/>
    </contour>
    <contour>
      <point x="297" y="564" type="curve"/>
      <point x="317" y="740"/>
      <point x="437" y="1008"/>
      <point x="641" y="1008" type="curve" smooth="yes"/>
      <point x="715" y="1008"/>
      <point x="769" y="980"/>
      <point x="769" y="889" type="curve" smooth="yes"/>
      <point x="769" y="692"/>
      <point x="459" y="571"/>
    </contour>
    <contour>
      <point x="774" y="67" type="move" name="btm"/>
    </contour>
    <contour>
      <point x="649" y="1259" type="move" name="top"/>
    </contour>
  </outline>
</glyph>
<glyph name="f" format="1">
  <advance width="695"/>
  <unicode hex="0066"/>
  <outline>
    <contour>
      <point x="148" y="0" type="line"/>
      <point x="343" y="0" type="line"/>
      <point x="476" y="984" type="line"/>
      <point x="696" y="984" type="line"/>
      <point x="708" y="1140" type="line"/>
      <point x="497" y="1140" type="line"/>
      <point x="518" y="1291" type="line" smooth="yes"/>
      <point x="534" y="1417"/>
      <point x="602" y="1527"/>
      <point x="712" y="1528" type="curve" smooth="yes"/>
      <point x="780" y="1529"/>
      <point x="812" y="1514"/>
      <point x="836" y="1496" type="curve"/>
      <point x="886" y="1655" type="line"/>
      <point x="838" y="1677"/>
      <point x="788" y="1681"/>
      <point x="738" y="1681" type="curve" smooth="yes"/>
      <point x="493" y="1681"/>
      <point x="352" y="1502"/>
      <point x="316" y="1234" type="curve" smooth="yes"/>
      <point x="302" y="1140" type="line"/>
      <point x="170" y="1140" type="line"/>
      <point x="142" y="984" type="line"/>
      <point x="281" y="984" type="line"/>
    </contour>
    <contour>
      <point x="451" y="1557" type="move" name="top"/>
    </contour>
  </outline>
</glyph>
<glyph name="g" format="1">
  <advance width="1157"/>
  <unicode hex="0067"/>
  <outline>
    <contour>
      <point x="390" y="-504" type="curve" smooth="yes"/>
      <point x="587" y="-504"/>
      <point x="851" y="-409"/>
      <point x="900" y="-93" type="curve" smooth="yes"/>
      <point x="1070" y="1156" type="line"/>
      <point x="864" y="1096" type="line"/>
      <point x="760" y="357" type="line"/>
      <point x="755" y="209" type="line"/>
      <point x="703" y="-96" type="line" smooth="yes"/>
      <point x="671" y="-259"/>
      <point x="598" y="-356"/>
      <point x="428" y="-356" type="curve" smooth="yes"/>
      <point x="325" y="-356"/>
      <point x="227" y="-330"/>
      <point x="171" y="-304" type="curve"/>
      <point x="121" y="-469" type="line"/>
      <point x="161" y="-486"/>
      <point x="302" y="-504"/>
    </contour>
    <contour>
      <point x="389" y="-16" type="curve" smooth="yes"/>
      <point x="618" y="-16"/>
      <point x="791" y="209"/>
      <point x="822" y="323" type="curve"/>
      <point x="799" y="443" type="line"/>
      <point x="750" y="344"/>
      <point x="595" y="136"/>
      <point x="424" y="136" type="curve" smooth="yes"/>
      <point x="336" y="136"/>
      <point x="281" y="225"/>
      <point x="281" y="440" type="curve" smooth="yes"/>
      <point x="281" y="677"/>
      <point x="410" y="1013"/>
      <point x="696" y="1013" type="curve" smooth="yes"/>
      <point x="788" y="1013"/>
      <point x="876" y="987"/>
      <point x="921" y="952" type="curve"/>
      <point x="999" y="1108" type="line"/>
      <point x="938" y="1130"/>
      <point x="817" y="1156"/>
      <point x="727" y="1156" type="curve" smooth="yes"/>
      <point x="276" y="1156"/>
      <point x="79" y="729"/>
      <point x="79" y="416" type="curve" smooth="yes"/>
      <point x="79" y="156"/>
      <point x="177" y="-16"/>
    </contour>
    <contour>
      <point x="717" y="1259" type="move" name="top"/>
    </contour>
  </outline>
</glyph>
<glyph name="k" format="1">
  <advance width="1041"/>
  <unicode hex="006B"/>
  <outline>
    <contour>
      <point x="402" y="634" type="line"/>
      <point x="757" y="4" type="line"/>
      <point x="984" y="4" type="line"/>
      <point x="561" y="698" type="line"/>
    </contour>
    <contour>
      <point x="567" y="579" type="line"/>
      <point x="644" y="601"/>
      <point x="804" y="707"/>
      <point x="920" y="855" type="curve" smooth="yes"/>
      <point x="990" y="944"/>
      <point x="1038" y="1030"/>
      <point x="1048" y="1140" type="curve"/>
      <point x="862" y="1140" type="line"/>
      <point x="818" y="1020"/>
      <point x="758" y="938"/>
      <point x="681" y="854" type="curve" smooth="yes"/>
      <point x="595" y="760"/>
      <point x="497" y="688"/>
      <point x="402" y="635" type="curve"/>
    </contour>
    <contour>
      <point x="88" y="0" type="line"/>
      <point x="283" y="0" type="line"/>
      <point x="491" y="1638" type="line"/>
      <point x="296" y="1638" type="line"/>
    </contour>
    <contour>
      <point x="516" y="-166" type="move" name="btm"/>
    </contour>
    <contour>
      <point x="586" y="1259" type="move" name="top"/>
    </contour>
  </outline>
</glyph>
<glyph name="o" format="1">
  <advance width="1135"/>
  <unicode hex="006F"/>
  <outline>
    <contour>
      <point x="292" y="447" type="curve" smooth="yes"/>
      <point x="287" y="696"/>
      <point x="402" y="1009"/>
      <point x="630" y="1009" type="curve" smooth="yes"/>
      <point x="776" y="1009"/>
      <point x="833" y="894"/>
      <point x="836" y="695" type="curve" smooth="yes"/>
      <point x="841" y="446"/>
      <point x="737" y="131"/>
      <point x="509" y="131" type="curve" smooth="yes"/>
      <point x="363" y="131"/>
      <point x="295" y="248"/>
    </contour>
    <contour>
      <point x="89" y="445" type="curve" smooth="yes"/>
      <point x="94" y="154"/>
      <point x="226" y="-16"/>
      <point x="479" y="-16" type="curve" smooth="yes"/>
      <point x="815" y="-16"/>
      <point x="1047" y="333"/>
      <point x="1041" y="696" type="curve" smooth="yes"/>
      <point x="1036" y="987"/>
      <point x="914" y="1156"/>
      <point x="661" y="1156" type="curve" smooth="yes"/>
      <point x="325" y="1156"/>
      <point x="83" y="808"/>
    </contour>
    <contour>
      <point x="653" y="1259" type="move" name="top"/>
    </contour>
    <contour>
      <point x="605" y="-136" type="move" name="bottom"/>
    </contour>
  </outline>
</glyph>
<glyph name="q" format="1">
  <advance width="1159"/>
  <unicode hex="0071"/>
  <outline>
    <contour>
      <point x="649" y="-506" type="line"/>
      <point x="844" y="-506" type="line"/>
      <point x="1064" y="1162" type="line"/>
      <point x="861" y="1102" type="line"/>
      <point x="760" y="357" type="line"/>
      <point x="755" y="207" type="line"/>
      <point x="717" y="4" type="line"/>
    </contour>
    <contour>
      <point x="389" y="-16" type="curve" smooth="yes"/>
      <point x="618" y="-16"/>
      <point x="791" y="209"/>
      <point x="822" y="323" type="curve"/>
      <point x="799" y="443" type="line"/>
      <point x="750" y="344"/>
      <point x="595" y="136"/>
      <point x="424" y="136" type="curve" smooth="yes"/>
      <point x="336" y="136"/>
      <point x="281" y="225"/>
      <point x="281" y="440" type="curve" smooth="yes"/>
      <point x="281" y="677"/>
      <point x="410" y="1013"/>
      <point x="696" y="1013" type="curve" smooth="yes"/>
      <point x="788" y="1013"/>
      <point x="876" y="987"/>
      <point x="921" y="952" type="curve"/>
      <point x="999" y="1108" type="line"/>
      <point x="938" y="1130"/>
      <point x="817" y="1156"/>
      <point x="727" y="1156" type="curve" smooth="yes"/>
      <point x="276" y="1156"/>
      <point x="79" y="729"/>
      <point x="79" y="416" type="curve" smooth="yes"/>
      <point x="79" y="156"/>
      <point x="177" y="-16"/>
    </contour>
    <contour>
      <point x="687" y="1259" type="move" name="top"/>
    </contour>
    <contour>
      <point x="477" y="1622" type="move" name="cr"/>
    </contour>
  </outline>
</glyph>
<glyph name="r" format="1">
  <advance width="786"/>
  <unicode hex="0072"/>
  <outline>
    <contour>
      <point x="359" y="650" type="line"/>
      <point x="436" y="841"/>
      <point x="584" y="949"/>
      <point x="673" y="949" type="curve" smooth="yes"/>
      <point x="722" y="949"/>
      <point x="751" y="945"/>
      <point x="771" y="935" type="curve"/>
      <point x="815" y="1143" type="line"/>
      <point x="804" y="1154"/>
      <point x="774" y="1156"/>
      <point x="754" y="1156" type="curve" smooth="yes"/>
      <point x="563" y="1156"/>
      <point x="432" y="992"/>
      <point x="392" y="916" type="curve"/>
      <point x="322" y="725" type="line"/>
    </contour>
    <contour>
      <point x="82" y="0" type="line"/>
      <point x="277" y="0" type="line"/>
      <point x="402" y="916" type="line"/>
      <point x="423" y="1140" type="line"/>
      <point x="238" y="1140" type="line"/>
    </contour>
    <contour>
      <point x="163" y="-166" type="move" name="btm"/>
    </contour>
    <contour>
      <point x="364" y="1259" type="move" name="top"/>
    </contour>
  </outline>
</glyph>
<glyph name="t" format="1">
  <advance width="741"/>
  <unicode hex="0074"/>
  <outline>
    <contour>
      <point x="153" y="163" type="curve" smooth="yes"/>
      <point x="153" y="26"/>
      <point x="236" y="-16"/>
      <point x="336" y="-16" type="curve" smooth="yes"/>
      <point x="447" y="-16"/>
      <point x="603" y="70"/>
      <point x="650" y="129" type="curve"/>
      <point x="625" y="237" type="line"/>
      <point x="583" y="205"/>
      <point x="464" y="139"/>
      <point x="412" y="139" type="curve" smooth="yes"/>
      <point x="363" y="139"/>
      <point x="356" y="194"/>
      <point x="356" y="248" type="curve" smooth="yes"/>
      <point x="356" y="287"/>
      <point x="363" y="319"/>
      <point x="373" y="394" type="curve" smooth="yes"/>
      <point x="449" y="984" type="line"/>
      <point x="710" y="984" type="line"/>
      <point x="733" y="1140" type="line"/>
      <point x="471" y="1140" type="line"/>
      <point x="507" y="1420" type="line"/>
      <point x="342" y="1420" type="line"/>
      <point x="280" y="1140" type="line"/>
      <point x="175" y="1140" type="line"/>
      <point x="133" y="984" type="line"/>
      <point x="249" y="984" type="line"/>
      <point x="165" y="296" type="line" smooth="yes"/>
      <point x="152" y="196"/>
      <point x="153" y="174"/>
    </contour>
    <contour>
      <point x="291" y="-166" type="move" name="btm"/>
    </contour>
    <contour>
      <point x="434" y="1364" type="move" name="top"/>
    </contour>
    <contour>
      <point x="403" y="472" type="move" name="tbarbar"/>
    </contour>
  </outline>
</glyph>
<glyph name="u" format="1">
  <advance width="1173"/>
  <unicode hex="0075"/>
  <outline>
    <contour>
      <point x="750" y="0" type="line"/>
      <point x="932" y="0" type="line"/>
      <point x="1083" y="1140" type="line"/>
      <point x="888" y="1140" type="line"/>
      <point x="773" y="271" type="line"/>
      <point x="777" y="271" type="line"/>
    </contour>
    <contour>
      <point x="102" y="270" type="curve" smooth="yes"/>
      <point x="102" y="62"/>
      <point x="188" y="-20"/>
      <point x="364" y="-20" type="curve" smooth="yes"/>
      <point x="596" y="-20"/>
      <point x="795" y="198"/>
      <point x="879" y="404" type="curve"/>
      <point x="857" y="531" type="line"/>
      <point x="783" y="354"/>
      <point x="584" y="151"/>
      <point x="436" y="151" type="curve" smooth="yes"/>
      <point x="347" y="151"/>
      <point x="301" y="176"/>
      <point x="301" y="282" type="curve" smooth="yes"/>
      <point x="301" y="330"/>
      <point x="308" y="405"/>
      <point x="320" y="497" type="curve" smooth="yes"/>
      <point x="342" y="676"/>
      <point x="379" y="916"/>
      <point x="409" y="1140" type="curve"/>
      <point x="213" y="1140" type="line"/>
      <point x="180" y="920"/>
      <point x="146" y="678"/>
      <point x="123" y="498" type="curve" smooth="yes"/>
      <point x="110" y="396"/>
      <point x="102" y="314"/>
    </contour>
    <contour>
      <point x="682" y="1259" type="move" name="top"/>
    </contour>
    <contour>
      <point x="1038" y="103" type="move" name="bottom"/>
    </contour>
  </outline>
</glyph>
<glyph name="x" format="1">
  <advance width="953"/>
  <unicode hex="0078"/>
  <outline>
    <contour>
      <point x="155" y="4" type="line"/>
      <point x="479" y="498" type="line"/>
      <point x="549" y="554" type="line"/>
      <point x="981" y="1140" type="line"/>
      <point x="769" y="1140" type="line"/>
      <point x="452" y="664" type="line"/>
      <point x="394" y="621" type="line"/>
      <point x="-54" y="4" type="line"/>
    </contour>
    <contour>
      <point x="394" y="543" type="line"/>
      <point x="605" y="4" type="line"/>
      <point x="834" y="4" type="line"/>
      <point x="531" y="626" type="line"/>
      <point x="352" y="1140" type="line"/>
      <point x="118" y="1140" type="line"/>
    </contour>
    <contour>
      <point x="494" y="1259" type="move" name="top"/>
    </contour>
  </outline>
</glyph>
<glyph name="y" format="1">
  <advance width="1050"/>
  <unicode hex="0079"/>
  <outline>
    <contour>
      <point x="415" y="359" type="line"/>
      <point x="331" y="1140" type="line"/>
      <point x="115" y="1140" type="line"/>
      <point x="224" y="359" type="line"/>
      <point x="289" y="-16" type="line"/>
      <point x="465" y="-16" type="line"/>
    </contour>
    <contour>
      <point x="433" y="17" type="line"/>
      <point x="240" y="-274"/>
      <point x="112" y="-342"/>
      <point x="-20" y="-342" type="curve" smooth="yes"/>
      <point x="-90" y="-342"/>
      <point x="-123" y="-319"/>
      <point x="-139" y="-312" type="curve"/>
      <point x="-195" y="-474" type="line"/>
      <point x="-159" y="-486"/>
      <point x="-91" y="-501"/>
      <point x="-53" y="-501" type="curve" smooth="yes"/>
      <point x="234" y="-501"/>
      <point x="387" y="-296"/>
      <point x="501" y="-154" type="curve" smooth="yes"/>
      <point x="591" y="-42"/>
      <point x="676" y="89"/>
      <point x="750" y="229" type="curve" smooth="yes"/>
      <point x="885" y="484"/>
      <point x="981" y="751"/>
      <point x="1000" y="1007" type="curve" smooth="yes"/>
      <point x="1004" y="1054"/>
      <point x="1004" y="1099"/>
      <point x="1001" y="1140" type="curve"/>
      <point x="809" y="1140" type="line"/>
      <point x="808" y="1096"/>
      <point x="806" y="1051"/>
      <point x="802" y="1006" type="curve" smooth="yes"/>
      <point x="777" y="750"/>
      <point x="709" y="481"/>
      <point x="558" y="239" type="curve"/>
    </contour>
    <contour>
      <point x="574" y="1259" type="move" name="top"/>
    </contour>
  </outline>
</glyph>
<glyph name="z" format="1">
  <advance width="965"/>
  <unicode hex="007A"/>
  <outline>
    <contour>
      <point x="-28" y="59" type="line"/>
      <point x="30" y="0" type="line"/>
      <point x="127" y="54" type="line"/>
      <point x="368" y="306" type="line"/>
      <point x="965" y="1088" type="line"/>
      <point x="917" y="1140" type="line"/>
      <point x="781" y="1058" type="line"/>
      <point x="551" y="815" type="line"/>
    </contour>
    <contour>
      <point x="172" y="984" type="line"/>
      <point x="768" y="984" type="line"/>
      <point x="890" y="1065" type="line"/>
      <point x="917" y="1140" type="line"/>
      <point x="194" y="1140" type="line"/>
    </contour>
    <contour>
      <point x="30" y="0" type="line"/>
      <point x="807" y="0" type="line"/>
      <point x="822" y="156" type="line"/>
      <point x="169" y="156" type="line"/>
      <point x="47" y="78" type="line"/>
    </contour>
    <contour>
      <point x="592" y="1259" type="move" name="top"/>
    </contour>
  </outline>
</glyph>
<glyph name="currency" format="1">
  <advance width="1540"/>
  <unicode hex="00A4"/>
  <outline>
    <contour>
      <point x="342" y="690" type="curve" smooth="yes"/>
      <point x="342" y="447"/>
      <point x="539" y="252"/>
      <point x="782" y="252" type="curve" smooth="yes"/>
      <point x="1025" y="252"/>
      <point x="1222" y="447"/>
      <point x="1222" y="690" type="curve" smooth="yes"/>
      <point x="1222" y="933"/>
      <point x="1025" y="1128"/>
      <point x="782" y="1128" type="curve" smooth="yes"/>
      <point x="539" y="1128"/>
      <point x="342" y="933"/>
    </contour>
    <contour>
      <point x="490" y="690" type="curve" smooth="yes"/>
      <point x="490" y="857"/>
      <point x="620" y="995"/>
      <point x="782" y="995" type="curve" smooth="yes"/>
      <point x="944" y="995"/>
      <point x="1074" y="857"/>
      <point x="1074" y="690" type="curve" smooth="yes"/>
      <point x="1074" y="523"/>
      <point x="944" y="385"/>
      <point x="782" y="385" type="curve" smooth="yes"/>
      <point x="620" y="385"/>
      <point x="490" y="523"/>
    </contour>
    <contour>
      <point x="346" y="130" type="line"/>
      <point x="562" y="346" type="line"/>
      <point x="448" y="459" type="line"/>
      <point x="232" y="243" type="line"/>
    </contour>
    <contour>
      <point x="1011" y="1020" type="line"/>
      <point x="1125" y="906" type="line"/>
      <point x="1341" y="1122" type="line"/>
      <point x="1228" y="1236" type="line"/>
    </contour>
    <contour>
      <point x="229" y="1135" type="line"/>
      <point x="445" y="919" type="line"/>
      <point x="558" y="1032" type="line"/>
      <point x="342" y="1249" type="line"/>
    </contour>
    <contour>
      <point x="1009" y="351" type="line"/>
      <point x="1225" y="135" type="line"/>
      <point x="1339" y="248" type="line"/>
      <point x="1123" y="464" type="line"/>
    </contour>
  </outline>
</glyph>
<glyph name="section" format="1">
  <advance width="1194"/>
  <unicode hex="00A7"/>
  <outline>
    <contour>
      <point x="726" y="426" type="curve"/>
      <point x="884" y="340" type="line"/>
      <point x="1016" y="409"/>
      <point x="1096" y="506"/>
      <point x="1093" y="669" type="curve" smooth="yes"/>
      <point x="1089" y="860"/>
      <point x="913" y="981"/>
      <point x="747" y="1062" type="curve" smooth="yes"/>
      <point x="550" y="1161"/>
      <point x="443" y="1210"/>
      <point x="453" y="1366" type="curve" smooth="yes"/>
      <point x="461" y="1451"/>
      <point x="574" y="1522"/>
      <point x="733" y="1522" type="curve" smooth="yes"/>
      <point x="809" y="1522"/>
      <point x="967" y="1498"/>
      <point x="1030" y="1417" type="curve"/>
      <point x="1093" y="1568" type="line"/>
      <point x="1042" y="1613"/>
      <point x="936" y="1673"/>
      <point x="750" y="1673" type="curve" smooth="yes"/>
      <point x="429" y="1673"/>
      <point x="241" y="1535"/>
      <point x="245" y="1344" type="curve" smooth="yes"/>
      <point x="250" y="1117"/>
      <point x="448" y="988"/>
      <point x="630" y="904" type="curve" smooth="yes"/>
      <point x="850" y="802"/>
      <point x="887" y="719"/>
      <point x="887" y="631" type="curve" smooth="yes"/>
      <point x="887" y="519"/>
      <point x="819" y="456"/>
    </contour>
    <contour>
      <point x="186" y="85" type="curve"/>
      <point x="131" y="-65" type="line"/>
      <point x="175" y="-114"/>
      <point x="331" y="-186"/>
      <point x="496" y="-186" type="curve" smooth="yes"/>
      <point x="817" y="-186"/>
      <point x="1059" y="-51"/>
      <point x="1053" y="208" type="curve" smooth="yes"/>
      <point x="1049" y="369"/>
      <point x="873" y="467"/>
      <point x="707" y="536" type="curve" smooth="yes"/>
      <point x="510" y="635"/>
      <point x="403" y="689"/>
      <point x="413" y="845" type="curve" smooth="yes"/>
      <point x="419" y="925"/>
      <point x="488" y="986"/>
      <point x="601" y="1010" type="curve"/>
      <point x="445" y="1087" type="line"/>
      <point x="291" y="1026"/>
      <point x="202" y="949"/>
      <point x="205" y="813" type="curve" smooth="yes"/>
      <point x="209" y="586"/>
      <point x="402" y="456"/>
      <point x="590" y="378" type="curve" smooth="yes"/>
      <point x="778" y="300"/>
      <point x="847" y="230"/>
      <point x="847" y="160" type="curve" smooth="yes"/>
      <point x="847" y="4"/>
      <point x="673" y="-31"/>
      <point x="499" y="-31" type="curve" smooth="yes"/>
      <point x="373" y="-31"/>
      <point x="223" y="30"/>
    </contour>
  </outline>
</glyph>
<glyph name="copyright" format="1">
  <advance width="2129"/>
  <unicode hex="00A9"/>
  <outline>
    <contour>
      <point x="336" y="963" type="curve" smooth="yes"/>
      <point x="336" y="1376"/>
      <point x="645" y="1714"/>
      <point x="1064" y="1714" type="curve" smooth="yes"/>
      <point x="1483" y="1714"/>
      <point x="1792" y="1376"/>
      <point x="1792" y="963" type="curve" smooth="yes"/>
      <point x="1792" y="549"/>
      <point x="1483" y="211"/>
      <point x="1064" y="211" type="curve" smooth="yes"/>
      <point x="645" y="211"/>
      <point x="336" y="549"/>
    </contour>
    <contour>
      <point x="621" y="956" type="curve" smooth="yes"/>
      <point x="621" y="708"/>
      <point x="784" y="479"/>
      <point x="1061" y="479" type="curve" smooth="yes"/>
      <point x="1194" y="479"/>
      <point x="1315" y="519"/>
      <point x="1380" y="573" type="curve"/>
      <point x="1335" y="697" type="line"/>
      <point x="1285" y="669"/>
      <point x="1193" y="636"/>
      <point x="1088" y="636" type="curve" smooth="yes"/>
      <point x="928" y="636"/>
      <point x="815" y="754"/>
      <point x="815" y="971" type="curve" smooth="yes"/>
      <point x="815" y="1151"/>
      <point x="914" y="1293"/>
      <point x="1098" y="1293" type="curve" smooth="yes"/>
      <point x="1198" y="1293"/>
      <point x="1268" y="1266"/>
      <point x="1323" y="1230" type="curve"/>
      <point x="1355" y="1394" type="line"/>
      <point x="1320" y="1414"/>
      <point x="1245" y="1450"/>
      <point x="1117" y="1450" type="curve" smooth="yes"/>
      <point x="794" y="1450"/>
      <point x="621" y="1236"/>
    </contour>
    <contour>
      <point x="194" y="963" type="curve" smooth="yes"/>
      <point x="194" y="476"/>
      <point x="578" y="82"/>
      <point x="1064" y="82" type="curve" smooth="yes"/>
      <point x="1550" y="82"/>
      <point x="1935" y="476"/>
      <point x="1935" y="963" type="curve" smooth="yes"/>
      <point x="1935" y="1449"/>
      <point x="1550" y="1840"/>
      <point x="1064" y="1840" type="curve" smooth="yes"/>
      <point x="578" y="1840"/>
      <point x="194" y="1449"/>
    </contour>
  </outline>
</glyph>
<glyph name="logicalnot" format="1">
  <advance width="1370"/>
  <unicode hex="00AC"/>
  <outline>
    <contour>
      <point x="211" y="701" type="line"/>
      <point x="994" y="701" type="line"/>
      <point x="949" y="322" type="line"/>
      <point x="1126" y="322" type="line"/>
      <point x="1188" y="853" type="line"/>
      <point x="228" y="853" type="line"/>
    </contour>
  </outline>
</glyph>
<glyph name="macron" format="1">
  <advance width="614"/>
  <unicode hex="00AF"/>
  <outline>
    <contour>
      <point x="81" y="1395" type="line"/>
      <point x="590" y="1395" type="line"/>
      <point x="595" y="1544" type="line"/>
      <point x="85" y="1544" type="line"/>
    </contour>
    <contour>
      <point x="320" y="1255" type="move" name="_top"/>
    </contour>
  </outline>
</glyph>
<glyph name="plusminus" format="1">
  <advance width="1366"/>
  <unicode hex="00B1"/>
  <outline>
    <contour>
      <point x="172" y="30" type="line"/>
      <point x="1041" y="30" type="line"/>
      <point x="1058" y="180" type="line"/>
      <point x="189" y="180" type="line"/>
    </contour>
    <contour>
      <point x="554" y="295" type="line"/>
      <point x="733" y="295" type="line"/>
      <point x="760" y="536" type="line"/>
      <point x="763" y="591"/>
      <point x="768" y="645"/>
      <point x="771" y="700" type="curve"/>
      <point x="883" y="693" type="line"/>
      <point x="1138" y="693" type="line"/>
      <point x="1156" y="851" type="line"/>
      <point x="901" y="851" type="line"/>
      <point x="786" y="841" type="line"/>
      <point x="815" y="1005" type="line"/>
      <point x="841" y="1235" type="line"/>
      <point x="663" y="1235" type="line"/>
      <point x="637" y="1005" type="line"/>
      <point x="633" y="951"/>
      <point x="627" y="895"/>
      <point x="623" y="840" type="curve"/>
      <point x="484" y="851" type="line"/>
      <point x="259" y="851" type="line"/>
      <point x="241" y="693" type="line"/>
      <point x="466" y="693" type="line"/>
      <point x="607" y="700" type="line"/>
      <point x="581" y="536" type="line"/>
    </contour>
  </outline>
</glyph>
<glyph name="acute" format="1">
  <advance width="559"/>
  <unicode hex="00B4"/>
  <outline>
    <contour>
      <point x="152" y="1261" type="line"/>
      <point x="271" y="1307"/>
      <point x="492" y="1528"/>
      <point x="528" y="1596" type="curve"/>
      <point x="376" y="1733" type="line"/>
      <point x="69" y="1332" type="line"/>
    </contour>
    <contour>
      <point x="163" y="1255" type="move" name="_top"/>
    </contour>
  </outline>
</glyph>
<glyph name="mu" format="1">
  <advance width="1364"/>
  <unicode hex="00B5"/>
  <outline>
    <contour>
      <point x="370" y="56" type="line"/>
      <point x="394" y="10"/>
      <point x="482" y="-19"/>
      <point x="527" y="-20" type="curve" smooth="yes"/>
      <point x="704" y="-20"/>
      <point x="770" y="51"/>
      <point x="845" y="122" type="curve"/>
      <point x="854" y="25"/>
      <point x="919" y="-18"/>
      <point x="999" y="-18" type="curve" smooth="yes"/>
      <point x="1138" y="-18"/>
      <point x="1237" y="99"/>
      <point x="1252" y="120" type="curve"/>
      <point x="1190" y="227" type="line"/>
      <point x="1143" y="180"/>
      <point x="1109" y="155"/>
      <point x="1071" y="155" type="curve" smooth="yes"/>
      <point x="1050" y="155"/>
      <point x="1031" y="186"/>
      <point x="1038" y="238" type="curve" smooth="yes"/>
      <point x="1154" y="1140" type="line"/>
      <point x="960" y="1140" type="line"/>
      <point x="852" y="331" type="line" smooth="yes"/>
      <point x="797" y="260"/>
      <point x="685" y="156"/>
      <point x="582" y="156" type="curve" smooth="yes"/>
      <point x="494" y="156"/>
      <point x="411" y="199"/>
      <point x="427" y="346" type="curve" smooth="yes"/>
      <point x="427" y="345"/>
      <point x="496" y="848"/>
      <point x="509" y="952" type="curve" smooth="yes"/>
      <point x="527" y="1093"/>
      <point x="457" y="1154"/>
      <point x="379" y="1154" type="curve" smooth="yes"/>
      <point x="227" y="1154"/>
      <point x="136" y="1050"/>
      <point x="122" y="1029" type="curve"/>
      <point x="186" y="914" type="line"/>
      <point x="211" y="939"/>
      <point x="243" y="967"/>
      <point x="280" y="967" type="curve" smooth="yes"/>
      <point x="308" y="967"/>
      <point x="310" y="908"/>
      <point x="302" y="851" type="curve" smooth="yes"/>
      <point x="121" y="-372" type="line"/>
      <point x="306" y="-372" type="line"/>
    </contour>
  </outline>
</glyph>
<glyph name="cedilla" format="1">
  <advance width="479"/>
  <unicode hex="00B8"/>
  <outline>
    <contour>
      <point x="255" y="30" type="line"/>
      <point x="262" y="-2"/>
      <point x="259" y="-74"/>
      <point x="259" y="-119" type="curve" smooth="yes"/>
      <point x="259" y="-268"/>
      <point x="182" y="-299"/>
      <point x="100" y="-299" type="curve" smooth="yes"/>
      <point x="69" y="-299"/>
      <point x="46" y="-294"/>
      <point x="29" y="-285" type="curve"/>
      <point x="4" y="-436" type="line"/>
      <point x="26" y="-452"/>
      <point x="99" y="-464"/>
      <point x="152" y="-464" type="curve" smooth="yes"/>
      <point x="300" y="-464"/>
      <point x="430" y="-391"/>
      <point x="430" y="-165" type="curve" smooth="yes"/>
      <point x="430" y="-77"/>
      <point x="413" y="-9"/>
      <point x="385" y="30" type="curve"/>
      <point x="332" y="34" type="line"/>
    </contour>
    <contour>
      <point x="324" y="-170" type="move" name="_btm"/>
    </contour>
  </outline>
</glyph>
<glyph name="ordmasculine" format="1">
  <advance width="854"/>
  <unicode hex="00BA"/>
  <outline>
    <contour>
      <point x="423" y="733" type="curve" smooth="yes"/>
      <point x="641" y="729"/>
      <point x="863" y="901"/>
      <point x="863" y="1214" type="curve" smooth="yes"/>
      <point x="863" y="1432"/>
      <point x="730" y="1586"/>
      <point x="537" y="1589" type="curve" smooth="yes"/>
      <point x="334" y="1592"/>
      <point x="98" y="1417"/>
      <point x="98" y="1105" type="curve" smooth="yes"/>
      <point x="98" y="880"/>
      <point x="249" y="736"/>
    </contour>
    <contour>
      <point x="432" y="858" type="curve" smooth="yes"/>
      <point x="343" y="859"/>
      <point x="282" y="964"/>
      <point x="282" y="1123" type="curve" smooth="yes"/>
      <point x="282" y="1257"/>
      <point x="337" y="1469"/>
      <point x="524" y="1471" type="curve" smooth="yes"/>
      <point x="630" y="1472"/>
      <point x="677" y="1355"/>
      <point x="677" y="1196" type="curve" smooth="yes"/>
      <point x="677" y="1051"/>
      <point x="635" y="856"/>
    </contour>
  </outline>
</glyph>
<glyph name="onequarter" format="1">
  <advance width="2560"/>
  <unicode hex="00BC"/>
  <outline>
    <contour>
      <point x="1312" y="166" type="line"/>
      <point x="2269" y="166" type="line"/>
      <point x="2289" y="341" type="line"/>
      <point x="1492" y="308" type="line"/>
      <point x="1571" y="400" type="line"/>
      <point x="2062" y="1009" type="line"/>
      <point x="1929" y="1112" type="line"/>
      <point x="1881" y="1112" type="line"/>
      <point x="1275" y="261" type="line"/>
    </contour>
    <contour>
      <point x="1756" y="-177" type="line"/>
      <point x="1959" y="-177" type="line"/>
      <point x="2063" y="598" type="line"/>
      <point x="1861" y="575" type="line"/>
    </contour>
    <contour>
      <point x="473" y="636" type="line"/>
      <point x="658" y="636" type="line"/>
      <point x="793" y="1624" type="line"/>
      <point x="724" y="1645" type="line"/>
      <point x="673" y="1604"/>
      <point x="448" y="1501"/>
      <point x="308" y="1466" type="curve"/>
      <point x="314" y="1343" type="line"/>
      <point x="575" y="1395" type="line"/>
    </contour>
    <component base="fraction" xOffset="565"/>
  </outline>
</glyph>
<glyph name="AE" format="1">
  <advance width="1763"/>
  <unicode hex="00C6"/>
  <outline>
    <contour>
      <point x="212" y="416" type="line"/>
      <point x="915" y="416" type="line"/>
      <point x="916" y="567" type="line"/>
      <point x="212" y="567" type="line"/>
    </contour>
    <contour>
      <point x="-128" y="0" type="line"/>
      <point x="85" y="0" type="line"/>
      <point x="820" y="1393" type="line"/>
      <point x="942" y="1385" type="line"/>
      <point x="928" y="1530" type="line"/>
      <point x="364" y="1530" type="line"/>
      <point x="350" y="1430" type="line"/>
      <point x="641" y="1408" type="line"/>
    </contour>
    <contour>
      <point x="735" y="0" type="line"/>
      <point x="1637" y="0" type="line"/>
      <point x="1651" y="165" type="line"/>
      <point x="951" y="149" type="line"/>
      <point x="1023" y="710" type="line"/>
      <point x="1466" y="695" type="line"/>
      <point x="1478" y="861" type="line"/>
      <point x="1040" y="854" type="line"/>
      <point x="1107" y="1381" type="line"/>
      <point x="1688" y="1373" type="line"/>
      <point x="1695" y="1530" type="line"/>
      <point x="928" y="1530" type="line"/>
    </contour>
    <contour>
      <point x="1033" y="1700" type="move" name="top"/>
    </contour>
  </outline>
</glyph>
<glyph name="Eth" format="1">
  <advance width="1377"/>
  <unicode hex="00D0"/>
  <outline>
    <contour>
      <point x="42" y="722" type="line"/>
      <point x="781" y="722" type="line"/>
      <point x="797" y="852" type="line"/>
      <point x="58" y="852" type="line"/>
    </contour>
    <contour>
      <point x="211" y="0" type="line"/>
      <point x="267" y="0"/>
      <point x="364" y="-5"/>
      <point x="409" y="-9" type="curve" smooth="yes"/>
      <point x="440" y="-12"/>
      <point x="494" y="-15"/>
      <point x="522" y="-16" type="curve" smooth="yes"/>
      <point x="992" y="-28"/>
      <point x="1308" y="393"/>
      <point x="1298" y="922" type="curve" smooth="yes"/>
      <point x="1292" y="1293"/>
      <point x="1128" y="1546"/>
      <point x="721" y="1546" type="curve" smooth="yes"/>
      <point x="623" y="1546"/>
      <point x="488" y="1530"/>
      <point x="397" y="1530" type="curve"/>
      <point x="473" y="1378" type="line"/>
      <point x="507" y="1389"/>
      <point x="604" y="1400"/>
      <point x="662" y="1400" type="curve" smooth="yes"/>
      <point x="966" y="1400"/>
      <point x="1087" y="1275"/>
      <point x="1093" y="906" type="curve" smooth="yes"/>
      <point x="1099" y="547"/>
      <point x="938" y="146"/>
      <point x="564" y="134" type="curve" smooth="yes"/>
      <point x="479" y="131"/>
      <point x="383" y="144"/>
      <point x="323" y="165" type="curve"/>
    </contour>
    <contour>
      <point x="110" y="0" type="line"/>
      <point x="308" y="0" type="line"/>
      <point x="501" y="1530" type="line"/>
      <point x="303" y="1530" type="line"/>
    </contour>
  </outline>
</glyph>
<glyph name="multiply" format="1">
  <advance width="1370"/>
  <unicode hex="00D7"/>
  <outline>
    <contour>
      <point x="333" y="315" type="line"/>
      <point x="702" y="665" type="line"/>
      <point x="983" y="315" type="line"/>
      <point x="1115" y="438" type="line"/>
      <point x="814" y="765" type="line"/>
      <point x="1197" y="1092" type="line"/>
      <point x="1095" y="1215" type="line"/>
      <point x="726" y="865" type="line"/>
      <point x="445" y="1215" type="line"/>
      <point x="313" y="1092" type="line"/>
      <point x="614" y="765" type="line"/>
      <point x="231" y="438" type="line"/>
    </contour>
  </outline>
</glyph>
<glyph name="Oslash" format="1">
  <advance width="1378"/>
  <unicode hex="00D8"/>
  <outline>
    <contour>
      <point x="57" y="-83" type="line"/>
      <point x="146" y="-132" type="line"/>
      <point x="322" y="133" type="line"/>
      <point x="386" y="205" type="line"/>
      <point x="1074" y="1278" type="line"/>
      <point x="1131" y="1347" type="line"/>
      <point x="1313" y="1621" type="line"/>
      <point x="1224" y="1670" type="line"/>
      <point x="1055" y="1415" type="line"/>
      <point x="997" y="1346" type="line"/>
      <point x="327" y="300" type="line"/>
      <point x="263" y="226" type="line"/>
    </contour>
    <contour>
      <point x="599" y="-16" type="curve" smooth="yes"/>
      <point x="1023" y="-16"/>
      <point x="1314" y="400"/>
      <point x="1305" y="921" type="curve" smooth="yes"/>
      <point x="1299" y="1264"/>
      <point x="1139" y="1546"/>
      <point x="814" y="1546" type="curve" smooth="yes"/>
      <point x="402" y="1546"/>
      <point x="98" y="1140"/>
      <point x="108" y="610" type="curve" smooth="yes"/>
      <point x="114" y="267"/>
      <point x="274" y="-16"/>
    </contour>
    <contour>
      <point x="631" y="136" type="curve" smooth="yes"/>
      <point x="420" y="136"/>
      <point x="321" y="295"/>
      <point x="314" y="648" type="curve" smooth="yes"/>
      <point x="307" y="1028"/>
      <point x="499" y="1389"/>
      <point x="782" y="1389" type="curve" smooth="yes"/>
      <point x="993" y="1389"/>
      <point x="1093" y="1236"/>
      <point x="1099" y="883" type="curve" smooth="yes"/>
      <point x="1106" y="485"/>
      <point x="915" y="136"/>
    </contour>
  </outline>
</glyph>
<glyph name="Thorn" format="1">
  <advance width="1210"/>
  <unicode hex="00DE"/>
  <outline>
    <contour>
      <point x="343" y="280" type="line"/>
      <point x="372" y="275"/>
      <point x="430" y="270"/>
      <point x="525" y="270" type="curve" smooth="yes"/>
      <point x="889" y="270"/>
      <point x="1146" y="514"/>
      <point x="1139" y="907" type="curve" smooth="yes"/>
      <point x="1135" y="1172"/>
      <point x="971" y="1297"/>
      <point x="682" y="1297" type="curve" smooth="yes"/>
      <point x="573" y="1297"/>
      <point x="485" y="1280"/>
      <point x="387" y="1280" type="curve"/>
      <point x="449" y="1127" type="line"/>
      <point x="507" y="1139"/>
      <point x="597" y="1148"/>
      <point x="650" y="1148" type="curve" smooth="yes"/>
      <point x="850" y="1148"/>
      <point x="941" y="1057"/>
      <point x="938" y="889" type="curve" smooth="yes"/>
      <point x="933" y="595"/>
      <point x="813" y="429"/>
      <point x="531" y="426" type="curve" smooth="yes"/>
      <point x="478" y="425"/>
      <point x="398" y="432"/>
      <point x="363" y="440" type="curve"/>
      <point x="305" y="366" type="line"/>
    </contour>
    <contour>
      <point x="110" y="0" type="line"/>
      <point x="308" y="0" type="line"/>
      <point x="501" y="1530" type="line"/>
      <point x="303" y="1530" type="line"/>
    </contour>
  </outline>
</glyph>
<glyph name="ae" format="1">
  <advance width="1633"/>
  <unicode hex="00E6"/>
  <outline>
    <contour>
      <point x="765" y="587" type="line"/>
      <point x="716" y="488"/>
      <point x="587" y="136"/>
      <point x="416" y="136" type="curve" smooth="yes"/>
      <point x="328" y="136"/>
      <point x="283" y="225"/>
      <point x="283" y="440" type="curve" smooth="yes"/>
      <point x="283" y="677"/>
      <point x="402" y="1013"/>
      <point x="688" y="1013" type="curve" smooth="yes"/>
      <point x="780" y="1013"/>
      <point x="866" y="974"/>
      <point x="944" y="916" type="curve"/>
      <point x="1059" y="1045" type="line"/>
      <point x="899" y="1156"/>
      <point x="809" y="1156"/>
      <point x="719" y="1156" type="curve" smooth="yes"/>
      <point x="268" y="1156"/>
      <point x="81" y="729"/>
      <point x="81" y="416" type="curve" smooth="yes"/>
      <point x="81" y="156"/>
      <point x="159" y="-16"/>
      <point x="371" y="-16" type="curve" smooth="yes"/>
      <point x="630" y="-16"/>
      <point x="757" y="353"/>
      <point x="788" y="467" type="curve"/>
    </contour>
    <contour>
      <point x="684" y="434" type="curve" smooth="yes"/>
      <point x="678" y="206"/>
      <point x="794" y="-16"/>
      <point x="1077" y="-16" type="curve" smooth="yes"/>
      <point x="1271" y="-16"/>
      <point x="1430" y="107"/>
      <point x="1487" y="186" type="curve"/>
      <point x="1432" y="297" type="line"/>
      <point x="1318" y="190"/>
      <point x="1200" y="138"/>
      <point x="1100" y="138" type="curve" smooth="yes"/>
      <point x="916" y="138"/>
      <point x="884" y="303"/>
      <point x="890" y="425" type="curve"/>
      <point x="1120" y="441"/>
      <point x="1563" y="573"/>
      <point x="1563" y="906" type="curve" smooth="yes"/>
      <point x="1563" y="1047"/>
      <point x="1474" y="1156"/>
      <point x="1282" y="1156" type="curve" smooth="yes"/>
      <point x="931" y="1156"/>
      <point x="694" y="835"/>
    </contour>
    <contour>
      <point x="895" y="564" type="curve"/>
      <point x="915" y="740"/>
      <point x="1035" y="1008"/>
      <point x="1239" y="1008" type="curve" smooth="yes"/>
      <point x="1313" y="1008"/>
      <point x="1367" y="980"/>
      <point x="1367" y="889" type="curve" smooth="yes"/>
      <point x="1367" y="692"/>
      <point x="1057" y="571"/>
    </contour>
    <contour>
      <point x="915" y="1259" type="move" name="top"/>
    </contour>
  </outline>
</glyph>
<glyph name="divide" format="1">
  <advance width="1338"/>
  <unicode hex="00F7"/>
  <outline>
    <contour>
      <point x="241" y="696" type="line"/>
      <point x="1110" y="696" type="line"/>
      <point x="1128" y="853" type="line"/>
      <point x="259" y="853" type="line"/>
    </contour>
    <contour>
      <point x="712" y="1026" type="curve" smooth="yes"/>
      <point x="788" y="1026"/>
      <point x="876" y="1086"/>
      <point x="886" y="1173" type="curve" smooth="yes"/>
      <point x="894" y="1241"/>
      <point x="858" y="1298"/>
      <point x="765" y="1298" type="curve" smooth="yes"/>
      <point x="690" y="1298"/>
      <point x="599" y="1235"/>
      <point x="590" y="1151" type="curve" smooth="yes"/>
      <point x="581" y="1073"/>
      <point x="642" y="1026"/>
    </contour>
    <contour>
      <point x="616" y="252" type="curve" smooth="yes"/>
      <point x="694" y="252"/>
      <point x="778" y="312"/>
      <point x="789" y="399" type="curve" smooth="yes"/>
      <point x="797" y="466"/>
      <point x="762" y="524"/>
      <point x="669" y="524" type="curve" smooth="yes"/>
      <point x="593" y="524"/>
      <point x="504" y="460"/>
      <point x="494" y="377" type="curve" smooth="yes"/>
      <point x="485" y="299"/>
      <point x="545" y="252"/>
    </contour>
  </outline>
</glyph>
<glyph name="oslash" format="1">
  <advance width="1135"/>
  <unicode hex="00F8"/>
  <outline>
    <contour>
      <point x="34" y="-83" type="line"/>
      <point x="123" y="-132" type="line"/>
      <point x="266" y="73" type="line"/>
      <point x="335" y="154" type="line"/>
      <point x="836" y="942" type="line"/>
      <point x="903" y="1021" type="line"/>
      <point x="1066" y="1254" type="line"/>
      <point x="977" y="1303" type="line"/>
      <point x="830" y="1094" type="line"/>
      <point x="763" y="1015" type="line"/>
      <point x="260" y="224" type="line"/>
      <point x="194" y="148" type="line"/>
    </contour>
    <contour>
      <point x="293" y="449" type="curve" smooth="yes"/>
      <point x="288" y="698"/>
      <point x="403" y="1011"/>
      <point x="631" y="1011" type="curve" smooth="yes"/>
      <point x="777" y="1011"/>
      <point x="834" y="896"/>
      <point x="837" y="697" type="curve" smooth="yes"/>
      <point x="842" y="448"/>
      <point x="738" y="133"/>
      <point x="510" y="133" type="curve" smooth="yes"/>
      <point x="364" y="133"/>
      <point x="296" y="250"/>
    </contour>
    <contour>
      <point x="90" y="447" type="curve" smooth="yes"/>
      <point x="95" y="156"/>
      <point x="227" y="-14"/>
      <point x="480" y="-14" type="curve" smooth="yes"/>
      <point x="816" y="-14"/>
      <point x="1048" y="335"/>
      <point x="1042" y="698" type="curve" smooth="yes"/>
      <point x="1037" y="989"/>
      <point x="915" y="1158"/>
      <point x="662" y="1158" type="curve" smooth="yes"/>
      <point x="326" y="1158"/>
      <point x="84" y="810"/>
    </contour>
  </outline>
</glyph>
<glyph name="thorn" format="1">
  <advance width="1163"/>
  <unicode hex="00FE"/>
  <outline>
    <contour>
      <point x="258" y="-136" type="line"/>
      <point x="282" y="24" type="line"/>
      <point x="189" y="64" type="line"/>
      <point x="83" y="-16" type="line"/>
      <point x="12" y="-516" type="line"/>
      <point x="202" y="-516" type="line"/>
    </contour>
    <component base="b"/>
  </outline>
</glyph>
<glyph name="aogonek" format="1">
  <advance width="1174"/>
  <unicode hex="0105"/>
  <outline>
    <contour>
      <point x="501" y="-281" type="curve" smooth="yes"/>
      <point x="501" y="-344"/>
      <point x="557" y="-435"/>
      <point x="694" y="-435" type="curve" smooth="yes"/>
      <point x="810" y="-435"/>
      <point x="897" y="-377"/>
      <point x="939" y="-341" type="curve"/>
      <point x="888" y="-242" type="line"/>
      <point x="832" y="-281"/>
      <point x="794" y="-287"/>
      <point x="758" y="-287" type="curve" smooth="yes"/>
      <point x="735" y="-287"/>
      <point x="695" y="-276"/>
      <point x="695" y="-221" type="curve" smooth="yes"/>
      <point x="695" y="-147"/>
      <point x="827" y="-54"/>
      <point x="902" y="0" type="curve"/>
      <point x="842" y="59" type="line"/>
      <point x="746" y="0" type="line"/>
      <point x="669" y="-47"/>
      <point x="501" y="-143"/>
    </contour>
    <component base="a" xOffset="16"/>
  </outline>
</glyph>
<glyph name="eogonek" format="1">
  <advance width="1051"/>
  <unicode hex="0119"/>
  <outline>
    <contour>
      <point x="354" y="-281" type="curve" smooth="yes"/>
      <point x="354" y="-344"/>
      <point x="410" y="-435"/>
      <point x="547" y="-435" type="curve" smooth="yes"/>
      <point x="663" y="-435"/>
      <point x="750" y="-377"/>
      <point x="792" y="-341" type="curve"/>
      <point x="741" y="-242" type="line"/>
      <point x="685" y="-281"/>
      <point x="647" y="-287"/>
      <point x="611" y="-287" type="curve" smooth="yes"/>
      <point x="588" y="-287"/>
      <point x="548" y="-276"/>
      <point x="548" y="-221" type="curve" smooth="yes"/>
      <point x="548" y="-147"/>
      <point x="788" y="70"/>
      <point x="849" y="137" type="curve"/>
      <point x="695" y="59" type="line"/>
      <point x="599" y="0" type="line"/>
      <point x="522" y="-47"/>
      <point x="354" y="-153"/>
    </contour>
    <component base="e"/>
  </outline>
</glyph>
<glyph name="gcommaaccent" format="1">
  <advance width="1157"/>
  <unicode hex="0123"/>
  <outline>
    <contour>
      <point x="682" y="1237" type="curve"/>
      <point x="806" y="1357" type="line"/>
      <point x="812" y="1411" type="line"/>
      <point x="772" y="1420"/>
      <point x="740" y="1474"/>
      <point x="740" y="1520" type="curve" smooth="yes"/>
      <point x="740" y="1596"/>
      <point x="760" y="1633"/>
      <point x="808" y="1670" type="curve"/>
      <point x="811" y="1696" type="line"/>
      <point x="731" y="1746" type="line"/>
      <point x="653" y="1728"/>
      <point x="549" y="1620"/>
      <point x="549" y="1456" type="curve" smooth="yes"/>
      <point x="549" y="1360"/>
      <point x="600" y="1255"/>
    </contour>
    <component base="g"/>
  </outline>
</glyph>
<glyph name="hbar" format="1">
  <advance width="1198"/>
  <unicode hex="0127"/>
  <outline>
    <contour>
      <point x="132" y="1262" type="line"/>
      <point x="714" y="1262" type="line"/>
      <point x="730" y="1392" type="line"/>
      <point x="148" y="1392" type="line"/>
    </contour>
    <component base="h"/>
  </outline>
</glyph>
<glyph name="Iogonek" format="1">
  <advance width="580"/>
  <unicode hex="012E"/>
  <outline>
    <contour>
      <point x="127" y="0" type="line"/>
      <point x="50" y="-47"/>
      <point x="-118" y="-143"/>
      <point x="-118" y="-281" type="curve" smooth="yes"/>
      <point x="-118" y="-344"/>
      <point x="-62" y="-435"/>
      <point x="75" y="-435" type="curve" smooth="yes"/>
      <point x="191" y="-435"/>
      <point x="278" y="-377"/>
      <point x="320" y="-341" type="curve"/>
      <point x="269" y="-242" type="line"/>
      <point x="213" y="-281"/>
      <point x="175" y="-287"/>
      <point x="139" y="-287" type="curve" smooth="yes"/>
      <point x="116" y="-287"/>
      <point x="76" y="-276"/>
      <point x="76" y="-221" type="curve" smooth="yes"/>
      <point x="76" y="-147"/>
      <point x="208" y="-54"/>
      <point x="283" y="0" type="curve"/>
      <point x="223" y="59" type="line"/>
    </contour>
    <component base="I"/>
  </outline>
</glyph>
<glyph name="iogonek" format="1">
  <advance width="641"/>
  <unicode hex="012F"/>
  <outline>
    <contour>
      <point x="147" y="0" type="line"/>
      <point x="70" y="-47"/>
      <point x="-98" y="-143"/>
      <point x="-98" y="-281" type="curve" smooth="yes"/>
      <point x="-98" y="-344"/>
      <point x="-42" y="-435"/>
      <point x="95" y="-435" type="curve" smooth="yes"/>
      <point x="211" y="-435"/>
      <point x="298" y="-377"/>
      <point x="340" y="-341" type="curve"/>
      <point x="289" y="-242" type="line"/>
      <point x="233" y="-281"/>
      <point x="195" y="-287"/>
      <point x="159" y="-287" type="curve" smooth="yes"/>
      <point x="136" y="-287"/>
      <point x="96" y="-276"/>
      <point x="96" y="-221" type="curve" smooth="yes"/>
      <point x="96" y="-147"/>
      <point x="228" y="-54"/>
      <point x="303" y="0" type="curve"/>
      <point x="243" y="59" type="line"/>
    </contour>
    <component base="idotless" xOffset="22"/>
    <component base="dotaccent" xOffset="256"/>
  </outline>
</glyph>
<glyph name="dotlessi" format="1">
  <advance width="584"/>
  <unicode hex="0131"/>
  <outline>
    <contour>
      <point x="124" y="0" type="line"/>
      <point x="319" y="0" type="line"/>
      <point x="474" y="1140" type="line"/>
      <point x="279" y="1140" type="line"/>
    </contour>
    <contour>
      <point x="416" y="1259" type="move" name="top"/>
    </contour>
    <contour>
      <point x="439" y="67" type="move" name="bottom"/>
    </contour>
  </outline>
</glyph>
<glyph name="lacute" format="1">
  <advance width="584"/>
  <unicode hex="013A"/>
  <outline>
    <contour>
      <point x="125" y="0" type="line"/>
      <point x="320" y="0" type="line"/>
      <point x="529" y="1522" type="line"/>
      <point x="334" y="1522" type="line"/>
    </contour>
    <component base="acute.cap" xOffset="305"/>
  </outline>
</glyph>
<glyph name="Lslash" format="1">
  <advance width="978"/>
  <unicode hex="0141"/>
  <outline>
    <contour>
      <point x="-15" y="483" type="line"/>
      <point x="809" y="830" type="line"/>
      <point x="774" y="957" type="line"/>
      <point x="-51" y="601" type="line"/>
    </contour>
    <component base="L"/>
  </outline>
</glyph>
<glyph name="lslash" format="1">
  <advance width="584"/>
  <unicode hex="0142"/>
  <outline>
    <contour>
      <point x="88" y="793" type="line"/>
      <point x="622" y="1002" type="line"/>
      <point x="622" y="1149" type="line"/>
      <point x="88" y="930" type="line"/>
    </contour>
    <component base="l"/>
  </outline>
</glyph>
<glyph name="Tbar" format="1">
  <advance width="1122"/>
  <unicode hex="0166"/>
  <outline>
    <contour>
      <point x="203" y="722" type="line"/>
      <point x="942" y="722" type="line"/>
      <point x="958" y="852" type="line"/>
      <point x="219" y="852" type="line"/>
    </contour>
    <component base="T"/>
    <contour>
      <point x="568" y="-170" type="move" name="btm"/>
    </contour>
    <contour>
      <point x="779" y="1700" type="move" name="top"/>
    </contour>
  </outline>
</glyph>
<glyph name="Uogonek" format="1">
  <advance width="1363"/>
  <unicode hex="0172"/>
  <outline>
    <contour>
      <point x="461" y="-281" type="curve" smooth="yes"/>
      <point x="461" y="-344"/>
      <point x="517" y="-435"/>
      <point x="654" y="-435" type="curve" smooth="yes"/>
      <point x="770" y="-435"/>
      <point x="857" y="-377"/>
      <point x="899" y="-341" type="curve"/>
      <point x="848" y="-242" type="line"/>
      <point x="792" y="-281"/>
      <point x="754" y="-287"/>
      <point x="718" y="-287" type="curve" smooth="yes"/>
      <point x="695" y="-287"/>
      <point x="655" y="-276"/>
      <point x="655" y="-221" type="curve" smooth="yes"/>
      <point x="655" y="-147"/>
      <point x="895" y="70"/>
      <point x="956" y="137" type="curve"/>
      <point x="802" y="59" type="line"/>
      <point x="706" y="0" type="line"/>
      <point x="629" y="-47"/>
      <point x="461" y="-153"/>
    </contour>
    <component base="U"/>
  </outline>
</glyph>
<glyph name="uogonek" format="1">
  <advance width="1182"/>
  <unicode hex="0173"/>
  <outline>
    <contour>
      <point x="502" y="-281" type="curve" smooth="yes"/>
      <point x="502" y="-344"/>
      <point x="558" y="-435"/>
      <point x="695" y="-435" type="curve" smooth="yes"/>
      <point x="811" y="-435"/>
      <point x="898" y="-377"/>
      <point x="940" y="-341" type="curve"/>
      <point x="889" y="-242" type="line"/>
      <point x="833" y="-281"/>
      <point x="795" y="-287"/>
      <point x="759" y="-287" type="curve" smooth="yes"/>
      <point x="736" y="-287"/>
      <point x="696" y="-276"/>
      <point x="696" y="-221" type="curve" smooth="yes"/>
      <point x="696" y="-147"/>
      <point x="828" y="-54"/>
      <point x="903" y="0" type="curve"/>
      <point x="843" y="59" type="line"/>
      <point x="747" y="0" type="line"/>
      <point x="670" y="-47"/>
      <point x="502" y="-143"/>
    </contour>
    <component base="u"/>
  </outline>
</glyph>
<glyph name="dotlessj" format="1">
  <advance width="579"/>
  <unicode hex="0237"/>
  <outline>
    <contour>
      <point x="131" y="69" type="line"/>
      <point x="99" y="-171"/>
      <point x="53" y="-378"/>
      <point x="-124" y="-378" type="curve" smooth="yes"/>
      <point x="-135" y="-378"/>
      <point x="-167" y="-373"/>
      <point x="-178" y="-364" type="curve"/>
      <point x="-230" y="-475" type="line"/>
      <point x="-204" y="-493"/>
      <point x="-159" y="-514"/>
      <point x="-96" y="-514" type="curve" smooth="yes"/>
      <point x="117" y="-514"/>
      <point x="275" y="-315"/>
      <point x="318" y="4" type="curve" smooth="yes"/>
      <point x="472" y="1140" type="line"/>
      <point x="277" y="1140" type="line"/>
    </contour>
    <contour>
      <point x="391" y="1259" type="move" name="top"/>
    </contour>
  </outline>
</glyph>
<glyph name="caron" format="1">
  <advance width="795"/>
  <unicode hex="02C7"/>
  <outline>
    <contour>
      <point x="323" y="1285" type="line"/>
      <point x="499" y="1285" type="line"/>
      <point x="814" y="1593" type="line"/>
      <point x="732" y="1680" type="line"/>
      <point x="419" y="1436" type="line"/>
      <point x="167" y="1680" type="line"/>
      <point x="80" y="1592" type="line"/>
    </contour>
    <contour>
      <point x="391" y="1255" type="move" name="_top"/>
    </contour>
  </outline>
</glyph>
<glyph name="firsttonechinese" format="1">
  <advance width="614"/>
  <unicode hex="02C9"/>
  <outline>
    <contour>
      <point x="49" y="1729" type="line"/>
      <point x="558" y="1729" type="line"/>
      <point x="563" y="1878" type="line"/>
      <point x="53" y="1878" type="line"/>
    </contour>
    <contour>
      <point x="310" y="1700" type="move" name="_top"/>
    </contour>
  </outline>
</glyph>
<glyph name="breve" format="1">
  <advance width="717"/>
  <unicode hex="02D8"/>
  <outline>
    <contour>
      <point x="348" y="1300" type="curve" smooth="yes"/>
      <point x="546" y="1300"/>
      <point x="662" y="1463"/>
      <point x="684" y="1618" type="curve" smooth="yes"/>
      <point x="686" y="1629"/>
      <point x="687" y="1640"/>
      <point x="687" y="1651" type="curve"/>
      <point x="555" y="1651" type="line"/>
      <point x="532" y="1591"/>
      <point x="502" y="1447"/>
      <point x="355" y="1447" type="curve" smooth="yes"/>
      <point x="229" y="1447"/>
      <point x="204" y="1551"/>
      <point x="189" y="1620" type="curve" smooth="yes"/>
      <point x="187" y="1631"/>
      <point x="186" y="1642"/>
      <point x="185" y="1651" type="curve"/>
      <point x="50" y="1651" type="line"/>
      <point x="49" y="1645"/>
      <point x="49" y="1638"/>
      <point x="49" y="1632" type="curve" smooth="yes"/>
      <point x="49" y="1473"/>
      <point x="132" y="1300"/>
    </contour>
    <contour>
      <point x="350" y="1255" type="move" name="_top"/>
    </contour>
  </outline>
</glyph>
<glyph name="ring" format="1">
  <advance width="723"/>
  <unicode hex="02DA"/>
  <outline>
    <contour>
      <point x="380" y="1253" type="curve" smooth="yes"/>
      <point x="558" y="1253"/>
      <point x="716" y="1339"/>
      <point x="716" y="1521" type="curve" smooth="yes"/>
      <point x="716" y="1688"/>
      <point x="608" y="1786"/>
      <point x="440" y="1786" type="curve" smooth="yes"/>
      <point x="279" y="1786"/>
      <point x="93" y="1696"/>
      <point x="93" y="1511" type="curve" smooth="yes"/>
      <point x="93" y="1347"/>
      <point x="198" y="1253"/>
    </contour>
    <contour>
      <point x="385" y="1359" type="curve" smooth="yes"/>
      <point x="297" y="1359"/>
      <point x="232" y="1425"/>
      <point x="232" y="1505" type="curve" smooth="yes"/>
      <point x="232" y="1641"/>
      <point x="334" y="1678"/>
      <point x="424" y="1678" type="curve" smooth="yes"/>
      <point x="514" y="1678"/>
      <point x="574" y="1619"/>
      <point x="574" y="1538" type="curve" smooth="yes"/>
      <point x="574" y="1391"/>
      <point x="487" y="1359"/>
    </contour>
    <contour>
      <point x="362" y="1255" type="move" name="_top"/>
    </contour>
  </outline>
</glyph>
<glyph name="ogonek" format="1">
  <advance width="487"/>
  <unicode hex="02DB"/>
  <outline>
    <contour>
      <point x="10" y="-281" type="curve" smooth="yes"/>
      <point x="10" y="-344"/>
      <point x="66" y="-435"/>
      <point x="203" y="-435" type="curve" smooth="yes"/>
      <point x="319" y="-435"/>
      <point x="406" y="-377"/>
      <point x="448" y="-341" type="curve"/>
      <point x="397" y="-242" type="line"/>
      <point x="341" y="-281"/>
      <point x="303" y="-287"/>
      <point x="267" y="-287" type="curve" smooth="yes"/>
      <point x="244" y="-287"/>
      <point x="204" y="-276"/>
      <point x="204" y="-221" type="curve" smooth="yes"/>
      <point x="204" y="-147"/>
      <point x="336" y="-54"/>
      <point x="411" y="0" type="curve"/>
      <point x="351" y="59" type="line"/>
      <point x="255" y="0" type="line"/>
      <point x="178" y="-47"/>
      <point x="10" y="-143"/>
    </contour>
    <contour>
      <point x="312" y="-170" type="move" name="_btm"/>
    </contour>
  </outline>
</glyph>
<glyph name="tilde" format="1">
  <advance width="815"/>
  <unicode hex="02DC"/>
  <outline>
    <contour>
      <point x="96" y="1397" type="line"/>
      <point x="134" y="1437"/>
      <point x="168" y="1489"/>
      <point x="233" y="1488" type="curve" smooth="yes"/>
      <point x="344" y="1486"/>
      <point x="361" y="1348"/>
      <point x="524" y="1348" type="curve" smooth="yes"/>
      <point x="638" y="1348"/>
      <point x="758" y="1429"/>
      <point x="792" y="1531" type="curve"/>
      <point x="707" y="1620" type="line"/>
      <point x="669" y="1572"/>
      <point x="637" y="1510"/>
      <point x="563" y="1510" type="curve" smooth="yes"/>
      <point x="471" y="1510"/>
      <point x="439" y="1650"/>
      <point x="286" y="1650" type="curve" smooth="yes"/>
      <point x="182" y="1650"/>
      <point x="52" y="1567"/>
      <point x="9" y="1481" type="curve"/>
    </contour>
    <contour>
      <point x="397" y="1255" type="move" name="_top"/>
    </contour>
  </outline>
</glyph>
<glyph name="hungarumlaut" format="1">
  <advance width="918"/>
  <unicode hex="02DD"/>
  <outline>
    <contour>
      <point x="173" y="1272" type="line"/>
      <point x="267" y="1326"/>
      <point x="406" y="1505"/>
      <point x="461" y="1625" type="curve"/>
      <point x="316" y="1742" type="line"/>
      <point x="79" y="1326" type="line"/>
    </contour>
    <contour>
      <point x="599" y="1272" type="line"/>
      <point x="678" y="1309"/>
      <point x="849" y="1519"/>
      <point x="896" y="1624" type="curve"/>
      <point x="751" y="1742" type="line"/>
      <point x="504" y="1326" type="line"/>
    </contour>
    <contour>
      <point x="339" y="1255" type="move" name="_top"/>
    </contour>
  </outline>
</glyph>
<glyph name="uni1E9E" format="1">
  <advance width="1495"/>
  <unicode hex="1E9E"/>
  <outline>
    <contour>
      <point x="102" y="0" type="line"/>
      <point x="310" y="0" type="line"/>
      <point x="431" y="868" type="line"/>
      <point x="472" y="1210"/>
      <point x="698" y="1376"/>
      <point x="917" y="1376" type="curve" smooth="yes"/>
      <point x="985" y="1376"/>
      <point x="1064" y="1356"/>
      <point x="1118" y="1324" type="curve"/>
      <point x="756" y="829" type="line"/>
      <point x="755" y="767" type="line"/>
      <point x="1080" y="766"/>
      <point x="1185" y="651"/>
      <point x="1185" y="474" type="curve" smooth="yes" name="hr01"/>
      <point x="1185" y="229"/>
      <point x="1001" y="142"/>
      <point x="872" y="142" type="curve" smooth="yes"/>
      <point x="766" y="142"/>
      <point x="648" y="184"/>
      <point x="607" y="229" type="curve"/>
      <point x="501" y="63" type="line"/>
      <point x="572" y="16"/>
      <point x="664" y="-23"/>
      <point x="878" y="-23" type="curve" smooth="yes"/>
      <point x="1213" y="-23"/>
      <point x="1399" y="223"/>
      <point x="1399" y="499" type="curve" smooth="yes"/>
      <point x="1399" y="743"/>
      <point x="1183" y="888"/>
      <point x="1015" y="888" type="curve"/>
      <point x="1353" y="1340" type="line"/>
      <point x="1370" y="1446" type="line" name="hr02"/>
      <point x="1274" y="1446"/>
      <point x="1189" y="1538"/>
      <point x="934" y="1538" type="curve" smooth="yes"/>
      <point x="514" y="1538"/>
      <point x="268" y="1240"/>
      <point x="207" y="753" type="curve"/>
    </contour>
  </outline>
</glyph>
<glyph name="emdash" format="1">
  <advance width="2031"/>
  <unicode hex="2014"/>
  <outline>
    <contour>
      <point x="218" y="694" type="line"/>
      <point x="1808" y="694" type="line"/>
      <point x="1838" y="851" type="line"/>
      <point x="247" y="851" type="line"/>
    </contour>
  </outline>
</glyph>
<glyph name="quotereversed" format="1">
  <advance width="682"/>
  <unicode hex="201B"/>
  <outline>
    <contour>
      <point x="381" y="896" type="curve"/>
      <point x="483" y="983" type="line"/>
      <point x="487" y="1005" type="line"/>
      <point x="429" y="1057"/>
      <point x="364" y="1201"/>
      <point x="406" y="1356" type="curve" smooth="yes"/>
      <point x="426" y="1431"/>
      <point x="474" y="1496"/>
      <point x="549" y="1531" type="curve"/>
      <point x="555" y="1572" type="line"/>
      <point x="468" y="1716" type="line"/>
      <point x="379" y="1704"/>
      <point x="250" y="1607"/>
      <point x="207" y="1452" type="curve" smooth="yes"/>
      <point x="133" y="1179"/>
      <point x="277" y="986"/>
    </contour>
  </outline>
</glyph>
<glyph name="dagger" format="1">
  <advance width="815"/>
  <unicode hex="2020"/>
  <outline>
    <contour>
      <point x="295" y="151" type="line"/>
      <point x="412" y="151" type="line"/>
      <point x="577" y="1008" type="line"/>
      <point x="583" y="1127" type="line"/>
      <point x="854" y="1127" type="line"/>
      <point x="875" y="1277" type="line"/>
      <point x="582" y="1277" type="line"/>
      <point x="643" y="1469" type="line"/>
      <point x="673" y="1646" type="line"/>
      <point x="483" y="1646" type="line"/>
      <point x="459" y="1469" type="line"/>
      <point x="457" y="1277" type="line"/>
      <point x="157" y="1277" type="line"/>
      <point x="135" y="1127" type="line"/>
      <point x="414" y="1127" type="line"/>
      <point x="388" y="1008" type="line"/>
    </contour>
  </outline>
</glyph>
<glyph name="bullet" format="1">
  <advance width="858"/>
  <unicode hex="2022"/>
  <outline>
    <contour>
      <point x="409" y="507" type="curve" smooth="yes"/>
      <point x="562" y="507"/>
      <point x="660" y="647"/>
      <point x="660" y="767" type="curve" smooth="yes"/>
      <point x="660" y="866"/>
      <point x="585" y="939"/>
      <point x="484" y="939" type="curve" smooth="yes"/>
      <point x="342" y="939"/>
      <point x="233" y="803"/>
      <point x="233" y="683" type="curve" smooth="yes"/>
      <point x="233" y="586"/>
      <point x="309" y="507"/>
    </contour>
  </outline>
</glyph>
<glyph name="ellipsis" format="1">
  <advance width="1579"/>
  <unicode hex="2026"/>
  <outline>
    <contour>
      <point x="88" y="103" type="curve" smooth="yes"/>
      <point x="78" y="25"/>
      <point x="127" y="-22"/>
      <point x="198" y="-22" type="curve" smooth="yes"/>
      <point x="277" y="-22"/>
      <point x="354" y="36"/>
      <point x="366" y="125" type="curve" smooth="yes"/>
      <point x="375" y="193"/>
      <point x="341" y="250"/>
      <point x="246" y="250" type="curve" smooth="yes"/>
      <point x="171" y="250"/>
      <point x="99" y="186"/>
    </contour>
    <contour>
      <point x="614" y="103" type="curve" smooth="yes"/>
      <point x="604" y="25"/>
      <point x="653" y="-22"/>
      <point x="724" y="-22" type="curve" smooth="yes"/>
      <point x="803" y="-22"/>
      <point x="880" y="36"/>
      <point x="892" y="125" type="curve" smooth="yes"/>
      <point x="901" y="193"/>
      <point x="867" y="250"/>
      <point x="772" y="250" type="curve" smooth="yes"/>
      <point x="697" y="250"/>
      <point x="625" y="186"/>
    </contour>
    <contour>
      <point x="1140" y="103" type="curve" smooth="yes"/>
      <point x="1130" y="25"/>
      <point x="1179" y="-22"/>
      <point x="1250" y="-22" type="curve" smooth="yes"/>
      <point x="1329" y="-22"/>
      <point x="1406" y="36"/>
      <point x="1418" y="125" type="curve" smooth="yes"/>
      <point x="1427" y="193"/>
      <point x="1393" y="250"/>
      <point x="1298" y="250" type="curve" smooth="yes"/>
      <point x="1223" y="250"/>
      <point x="1151" y="186"/>
    </contour>
  </outline>
</glyph>
<glyph name="perthousand" format="1">
  <advance width="2698"/>
  <unicode hex="2030"/>
  <outline>
    <contour>
      <point x="1824" y="374" type="curve" smooth="yes"/>
      <point x="1824" y="198"/>
      <point x="1919" y="64"/>
      <point x="2102" y="64" type="curve" smooth="yes"/>
      <point x="2354" y="64"/>
      <point x="2514" y="285"/>
      <point x="2514" y="504" type="curve" smooth="yes"/>
      <point x="2514" y="676"/>
      <point x="2435" y="799"/>
      <point x="2237" y="799" type="curve" smooth="yes"/>
      <point x="1998" y="799"/>
      <point x="1824" y="586"/>
    </contour>
    <contour>
      <point x="1985" y="376" type="curve" smooth="yes"/>
      <point x="1985" y="494"/>
      <point x="2058" y="677"/>
      <point x="2209" y="677" type="curve" smooth="yes"/>
      <point x="2295" y="677"/>
      <point x="2344" y="607"/>
      <point x="2344" y="496" type="curve" smooth="yes"/>
      <point x="2344" y="382"/>
      <point x="2280" y="187"/>
      <point x="2131" y="187" type="curve" smooth="yes"/>
      <point x="2038" y="187"/>
      <point x="1985" y="264"/>
    </contour>
    <component base="percent"/>
  </outline>
</glyph>
<glyph name="minute" format="1">
  <advance width="623"/>
  <unicode hex="2032"/>
  <outline>
    <contour>
      <point x="275" y="1190" type="line"/>
      <point x="413" y="1190" type="line"/>
      <point x="609" y="1782" type="line"/>
      <point x="404" y="1782" type="line"/>
    </contour>
  </outline>
</glyph>
<glyph name="guilsinglleft" format="1">
  <advance width="1190"/>
  <unicode hex="2039"/>
  <outline>
    <contour>
      <point x="234" y="530" type="line"/>
      <point x="820" y="152" type="line"/>
      <point x="890" y="264" type="line"/>
      <point x="476" y="615" type="line"/>
      <point x="986" y="971" type="line"/>
      <point x="948" y="1086" type="line"/>
      <point x="256" y="690" type="line"/>
    </contour>
  </outline>
</glyph>
<glyph name="colonmonetary" format="1">
  <advance width="1333"/>
  <unicode hex="20A1"/>
  <outline>
    <contour>
      <point x="715" y="1355" type="curve" name="hr01"/>
      <point x="485" y="226" type="line"/>
      <point x="394" y="323"/>
      <point x="360" y="489"/>
      <point x="364" y="681" type="curve" smooth="yes"/>
      <point x="370" y="1031"/>
      <point x="497" y="1266"/>
    </contour>
    <contour>
      <point x="976" y="1393" type="curve" name="hr02"/>
      <point x="719" y="134" type="line"/>
      <point x="717" y="134" type="line" smooth="yes"/>
      <point x="668" y="134"/>
      <point x="625" y="142"/>
      <point x="587" y="157" type="curve"/>
      <point x="839" y="1388" type="line"/>
      <point x="868" y="1392"/>
      <point x="898" y="1394"/>
      <point x="929" y="1394" type="curve" smooth="yes"/>
      <point x="945" y="1394"/>
      <point x="961" y="1394"/>
    </contour>
    <contour>
      <point x="736" y="-353" type="line"/>
      <point x="806" y="-12" type="line"/>
      <point x="981" y="2"/>
      <point x="1119" y="46"/>
      <point x="1186" y="112" type="curve"/>
      <point x="1129" y="241" type="line"/>
      <point x="1051" y="192"/>
      <point x="967" y="154"/>
      <point x="837" y="140" type="curve"/>
      <point x="1090" y="1381" type="line"/>
      <point x="1166" y="1368"/>
      <point x="1215" y="1347"/>
      <point x="1233" y="1329" type="curve"/>
      <point x="1297" y="1492" type="line"/>
      <point x="1252" y="1506"/>
      <point x="1195" y="1523"/>
      <point x="1121" y="1534" type="curve"/>
      <point x="1178" y="1815" type="line"/>
      <point x="1062" y="1815" type="line"/>
      <point x="1007" y="1545" type="line"/>
      <point x="992" y="1546"/>
      <point x="977" y="1546"/>
      <point x="961" y="1546" type="curve" smooth="yes"/>
      <point x="930" y="1546"/>
      <point x="900" y="1544"/>
      <point x="870" y="1541" type="curve"/>
      <point x="926" y="1815" type="line"/>
      <point x="809" y="1815" type="line"/>
      <point x="749" y="1520" type="line"/>
      <point x="392" y="1429"/>
      <point x="147" y="1104"/>
      <point x="147" y="650" type="curve" smooth="yes"/>
      <point x="147" y="409"/>
      <point x="233" y="149"/>
      <point x="447" y="39" type="curve"/>
      <point x="367" y="-353" type="line"/>
      <point x="483" y="-353" type="line"/>
      <point x="555" y="-1" type="line" name="hr03"/>
      <point x="595" y="-11"/>
      <point x="639" y="-16"/>
      <point x="687" y="-16" type="curve" name="hr04"/>
      <point x="688" y="-16" type="line"/>
      <point x="619" y="-353" type="line"/>
    </contour>
  </outline>
</glyph>
<glyph name="franc" format="1">
  <advance width="1228"/>
  <unicode hex="20A3"/>
  <outline>
    <contour>
      <point x="36" y="299" type="line" name="hr00"/>
      <point x="257" y="299" type="line"/>
      <point x="219" y="0" type="line"/>
      <point x="424" y="0" type="line"/>
      <point x="462" y="299" type="line"/>
      <point x="773" y="299" type="line"/>
      <point x="792" y="460" type="line"/>
      <point x="483" y="460" type="line"/>
      <point x="514" y="706" type="line"/>
      <point x="988" y="690" type="line"/>
      <point x="1001" y="863" type="line"/>
      <point x="532" y="855" type="line"/>
      <point x="598" y="1376" type="line"/>
      <point x="1191" y="1368" type="line"/>
      <point x="1206" y="1530" type="line"/>
      <point x="414" y="1530" type="line"/>
      <point x="278" y="460" type="line"/>
      <point x="55" y="460" type="line"/>
    </contour>
  </outline>
</glyph>
<glyph name="lira" format="1">
  <advance width="1501"/>
  <unicode hex="20A4"/>
  <outline>
    <contour>
      <point x="220" y="852" type="line" name="hr00"/>
      <point x="446" y="852" type="line"/>
      <point x="424" y="721" type="line"/>
      <point x="180" y="721" type="line"/>
      <point x="161" y="582" type="line"/>
      <point x="400" y="582" type="line"/>
      <point x="385" y="493" type="line"/>
      <point x="374" y="412"/>
      <point x="351" y="289"/>
      <point x="285" y="236" type="curve"/>
      <point x="116" y="204"/>
      <point x="31" y="132"/>
      <point x="31" y="60" type="curve" smooth="yes"/>
      <point x="31" y="5"/>
      <point x="75" y="-20"/>
      <point x="118" y="-20" type="curve" smooth="yes"/>
      <point x="200" y="-20"/>
      <point x="294" y="33"/>
      <point x="347" y="101" type="curve"/>
      <point x="498" y="69"/>
      <point x="660" y="-20"/>
      <point x="876" y="-20" type="curve" smooth="yes"/>
      <point x="1331" y="-20"/>
      <point x="1372" y="211"/>
      <point x="1373" y="338" type="curve" smooth="yes"/>
      <point x="1374" y="446"/>
      <point x="1312" y="549"/>
      <point x="1232" y="612" type="curve"/>
      <point x="1073" y="491" type="line"/>
      <point x="1124" y="463"/>
      <point x="1163" y="386"/>
      <point x="1163" y="333" type="curve" smooth="yes"/>
      <point x="1163" y="211"/>
      <point x="1089" y="126"/>
      <point x="847" y="126" type="curve" smooth="yes"/>
      <point x="703" y="126"/>
      <point x="570" y="176"/>
      <point x="461" y="209" type="curve"/>
      <point x="537" y="325"/>
      <point x="570" y="399"/>
      <point x="605" y="582" type="curve"/>
      <point x="970" y="582" type="line"/>
      <point x="990" y="721" type="line"/>
      <point x="629" y="721" type="line"/>
      <point x="652" y="852" type="line"/>
      <point x="1030" y="852" type="line"/>
      <point x="1049" y="991" type="line"/>
      <point x="676" y="991" type="line"/>
      <point x="740" y="1332"/>
      <point x="846" y="1400"/>
      <point x="990" y="1400" type="curve" smooth="yes"/>
      <point x="1108" y="1400"/>
      <point x="1184" y="1338"/>
      <point x="1198" y="1322" type="curve"/>
      <point x="1284" y="1463" type="line"/>
      <point x="1219" y="1532"/>
      <point x="1088" y="1545"/>
      <point x="1019" y="1545" type="curve" smooth="yes"/>
      <point x="679" y="1545"/>
      <point x="514" y="1274"/>
      <point x="469" y="991" type="curve"/>
      <point x="239" y="991" type="line"/>
    </contour>
  </outline>
</glyph>
<glyph name="peseta" format="1">
  <advance width="1478"/>
  <unicode hex="20A7"/>
  <outline>
    <contour>
      <point x="1094" y="1103" type="curve" name="hr01"/>
      <point x="556" y="1103" type="line"/>
      <point x="590" y="1373" type="line"/>
      <point x="648" y="1385"/>
      <point x="756" y="1394"/>
      <point x="809" y="1394" type="curve" smooth="yes"/>
      <point x="1009" y="1394"/>
      <point x="1099" y="1302"/>
      <point x="1095" y="1134" type="curve" smooth="yes"/>
      <point x="1095" y="1123"/>
      <point x="1094" y="1113"/>
    </contour>
    <contour>
      <point x="537" y="956" type="line"/>
      <point x="1073" y="956" type="line"/>
      <point x="1026" y="777"/>
      <point x="906" y="679"/>
      <point x="692" y="677" type="curve" smooth="yes"/>
      <point x="638" y="676"/>
      <point x="540" y="683"/>
      <point x="504" y="691" type="curve"/>
    </contour>
    <contour>
      <point x="133" y="956" type="line"/>
      <point x="333" y="956" type="line"/>
      <point x="212" y="0" type="line"/>
      <point x="417" y="0" type="line"/>
      <point x="484" y="527" type="line"/>
      <point x="513" y="522"/>
      <point x="590" y="518"/>
      <point x="685" y="518" type="curve" smooth="yes"/>
      <point x="986" y="518"/>
      <point x="1212" y="681"/>
      <point x="1281" y="956" type="curve"/>
      <point x="1496" y="956" type="line"/>
      <point x="1516" y="1103" type="line"/>
      <point x="1301" y="1103" type="line"/>
      <point x="1302" y="1119"/>
      <point x="1302" y="1135"/>
      <point x="1302" y="1151" type="curve" smooth="yes"/>
      <point x="1301" y="1421"/>
      <point x="1135" y="1546"/>
      <point x="843" y="1546" type="curve" smooth="yes"/>
      <point x="732" y="1546"/>
      <point x="623" y="1530"/>
      <point x="524" y="1530" type="curve" name="hr02" smooth="yes"/>
      <point x="406" y="1530" type="line"/>
      <point x="352" y="1103" type="line"/>
      <point x="153" y="1103" type="line"/>
    </contour>
  </outline>
</glyph>
<glyph name="won" format="1">
  <advance width="1944"/>
  <unicode hex="20A9"/>
  <outline>
    <contour>
      <point x="1259" y="532" type="line" name="hr00"/>
      <point x="1392" y="532" type="line"/>
      <point x="1357" y="440" type="line"/>
      <point x="1284" y="224" type="line"/>
      <point x="1269" y="441" type="line"/>
    </contour>
    <contour>
      <point x="540" y="532" type="line"/>
      <point x="680" y="532" type="line"/>
      <point x="644" y="440" type="line"/>
      <point x="582" y="224" type="line"/>
      <point x="551" y="441" type="line"/>
    </contour>
    <contour>
      <point x="1222" y="887" type="line"/>
      <point x="1527" y="887" type="line"/>
      <point x="1442" y="664" type="line"/>
      <point x="1246" y="664" type="line"/>
    </contour>
    <contour>
      <point x="992" y="887" type="line"/>
      <point x="1041" y="887" type="line"/>
      <point x="1045" y="838" type="line"/>
      <point x="1064" y="664" type="line"/>
      <point x="909" y="664" type="line"/>
      <point x="976" y="838" type="line"/>
    </contour>
    <contour>
      <point x="495" y="887" type="line"/>
      <point x="819" y="887" type="line"/>
      <point x="732" y="664" type="line"/>
      <point x="523" y="664" type="line"/>
    </contour>
    <contour>
      <point x="92" y="887" type="line"/>
      <point x="306" y="887" type="line"/>
      <point x="339" y="664" type="line"/>
      <point x="62" y="664" type="line"/>
      <point x="45" y="532" type="line"/>
      <point x="359" y="532" type="line"/>
      <point x="440" y="-10" type="line"/>
      <point x="651" y="-10" type="line"/>
      <point x="859" y="532" type="line"/>
      <point x="1079" y="532" type="line"/>
      <point x="1139" y="-10" type="line"/>
      <point x="1350" y="-10" type="line"/>
      <point x="1571" y="532" type="line"/>
      <point x="1903" y="532" type="line"/>
      <point x="1920" y="664" type="line"/>
      <point x="1625" y="664" type="line"/>
      <point x="1716" y="887" type="line"/>
      <point x="1949" y="887" type="line"/>
      <point x="1966" y="1020" type="line"/>
      <point x="1770" y="1020" type="line"/>
      <point x="1978" y="1530" type="line"/>
      <point x="1771" y="1530" type="line"/>
      <point x="1577" y="1020" type="line"/>
      <point x="1208" y="1020" type="line"/>
      <point x="1155" y="1530" type="line"/>
      <point x="959" y="1530" type="line"/>
      <point x="984" y="1309" type="line"/>
      <point x="871" y="1020" type="line"/>
      <point x="478" y="1020" type="line"/>
      <point x="414" y="1530" type="line"/>
      <point x="210" y="1530" type="line"/>
      <point x="286" y="1020" type="line"/>
      <point x="109" y="1020" type="line"/>
    </contour>
  </outline>
</glyph>
<glyph name="sheqel" format="1">
  <advance width="1840"/>
  <unicode hex="20AA"/>
  <outline>
    <contour>
      <point x="1537" y="1522" type="line" name="hr00"/>
      <point x="1482" y="1044"/>
      <point x="1392" y="632"/>
      <point x="1338" y="154" type="curve"/>
      <point x="1066" y="154" type="line" smooth="yes"/>
      <point x="827" y="154"/>
      <point x="738" y="190"/>
      <point x="755" y="336" type="curve"/>
      <point x="888" y="1166" type="line"/>
      <point x="696" y="1166" type="line"/>
      <point x="568" y="326" type="line"/>
      <point x="542" y="91"/>
      <point x="698" y="0"/>
      <point x="927" y="0" type="curve" smooth="yes"/>
      <point x="1504" y="0" type="line"/>
      <point x="1717" y="1522" type="line"/>
    </contour>
    <contour>
      <point x="339" y="0" type="line"/>
      <point x="536" y="1367" type="line"/>
      <point x="902" y="1367" type="line" smooth="yes"/>
      <point x="1093" y="1367"/>
      <point x="1140" y="1290"/>
      <point x="1119" y="1109" type="curve"/>
      <point x="997" y="367" type="line"/>
      <point x="1188" y="367" type="line"/>
      <point x="1310" y="1102" type="line"/>
      <point x="1334" y="1308"/>
      <point x="1329" y="1522"/>
      <point x="1024" y="1522" type="curve" smooth="yes"/>
      <point x="370" y="1522" type="line"/>
      <point x="157" y="0" type="line"/>
    </contour>
  </outline>
</glyph>
<glyph name="dong" format="1">
  <advance width="1334"/>
  <unicode hex="20AB"/>
  <outline>
    <contour>
      <point x="924" y="1045" type="curve" name="hr00"/>
      <point x="856" y="564" type="line"/>
      <point x="828" y="542"/>
      <point x="773" y="458"/>
      <point x="569" y="458" type="curve" smooth="yes"/>
      <point x="455" y="458"/>
      <point x="390" y="534"/>
      <point x="391" y="692" type="curve" smooth="yes"/>
      <point x="392" y="876"/>
      <point x="502" y="1084"/>
      <point x="742" y="1084" type="curve" smooth="yes"/>
      <point x="854" y="1084"/>
      <point x="912" y="1057"/>
    </contour>
    <contour>
      <point x="707" y="1372" type="line"/>
      <point x="980" y="1372" type="line"/>
      <point x="956" y="1203" type="line"/>
      <point x="924" y="1220"/>
      <point x="865" y="1248"/>
      <point x="769" y="1248" type="curve" smooth="yes"/>
      <point x="408" y="1248"/>
      <point x="185" y="976"/>
      <point x="183" y="651" type="curve" smooth="yes"/>
      <point x="181" y="406"/>
      <point x="342" y="291"/>
      <point x="541" y="291" type="curve" smooth="yes"/>
      <point x="721" y="291"/>
      <point x="820" y="360"/>
      <point x="869" y="401" type="curve"/>
      <point x="860" y="331"/>
      <point x="859" y="323"/>
      <point x="859" y="318" type="curve" smooth="yes"/>
      <point x="859" y="306"/>
      <point x="862" y="291"/>
      <point x="877" y="291" type="curve" smooth="yes"/>
      <point x="1026" y="291" type="line"/>
      <point x="1179" y="1372" type="line"/>
      <point x="1414" y="1372" type="line"/>
      <point x="1437" y="1521" type="line"/>
      <point x="1200" y="1521" type="line"/>
      <point x="1224" y="1694" type="line"/>
      <point x="1028" y="1694" type="line"/>
      <point x="1002" y="1521" type="line"/>
      <point x="730" y="1521" type="line"/>
    </contour>
    <contour>
      <point x="46" y="0" type="line"/>
      <point x="1151" y="0" type="line"/>
      <point x="1178" y="178" type="line"/>
      <point x="73" y="178" type="line"/>
    </contour>
  </outline>
</glyph>
<glyph name="uni20B1" format="1">
  <advance width="1473"/>
  <unicode hex="20B1"/>
  <outline>
    <contour>
      <point x="520" y="829" type="line" name="hr01"/>
      <point x="1015" y="829" type="line"/>
      <point x="950" y="731"/>
      <point x="844" y="678"/>
      <point x="688" y="676" type="curve" smooth="yes"/>
      <point x="635" y="675"/>
      <point x="537" y="682"/>
      <point x="502" y="690" type="curve"/>
    </contour>
    <contour>
      <point x="1079" y="1236" type="curve"/>
      <point x="571" y="1236" type="line"/>
      <point x="589" y="1374" type="line"/>
      <point x="645" y="1385"/>
      <point x="753" y="1394"/>
      <point x="805" y="1394" type="curve" smooth="yes"/>
      <point x="961" y="1394"/>
      <point x="1049" y="1339"/>
    </contour>
    <contour>
      <point x="558" y="1129" type="line"/>
      <point x="1091" y="1129" type="line" name="hr02"/>
      <point x="1089" y="1057"/>
      <point x="1080" y="992"/>
      <point x="1063" y="936" type="curve"/>
      <point x="533" y="936" type="line"/>
    </contour>
    <contour>
      <point x="169" y="1129" type="line"/>
      <point x="354" y="1129" type="line"/>
      <point x="330" y="936" type="line"/>
      <point x="153" y="936" type="line"/>
      <point x="138" y="829" type="line"/>
      <point x="316" y="829" type="line"/>
      <point x="211" y="0" type="line"/>
      <point x="415" y="0" type="line"/>
      <point x="482" y="525" type="line"/>
      <point x="510" y="520"/>
      <point x="588" y="515"/>
      <point x="682" y="515" type="curve" smooth="yes"/>
      <point x="932" y="515"/>
      <point x="1131" y="631"/>
      <point x="1230" y="829" type="curve"/>
      <point x="1479" y="829" type="line"/>
      <point x="1494" y="936" type="line"/>
      <point x="1271" y="936" type="line" name="hr04"/>
      <point x="1288" y="995"/>
      <point x="1297" y="1060"/>
      <point x="1298" y="1129" type="curve"/>
      <point x="1510" y="1129" type="line"/>
      <point x="1525" y="1236" type="line"/>
      <point x="1291" y="1236" type="line"/>
      <point x="1257" y="1446"/>
      <point x="1098" y="1546"/>
      <point x="838" y="1546" type="curve" smooth="yes"/>
      <point x="728" y="1546"/>
      <point x="620" y="1530"/>
      <point x="522" y="1530" type="curve" smooth="yes" name="hr05"/>
      <point x="405" y="1530" type="line"/>
      <point x="368" y="1236" type="line"/>
      <point x="184" y="1236" type="line"/>
    </contour>
  </outline>
</glyph>
<glyph name="uni20B2" format="1">
  <advance width="1491"/>
  <unicode hex="20B2"/>
  <outline>
    <contour>
      <point x="1014" y="1543" type="curve" name="hr00"/>
      <point x="1045" y="1763" type="line"/>
      <point x="867" y="1763" type="line"/>
      <point x="836" y="1540" type="line"/>
      <point x="462" y="1490"/>
      <point x="181" y="1134"/>
      <point x="189" y="626" type="curve" smooth="yes"/>
      <point x="194" y="331"/>
      <point x="323" y="14"/>
      <point x="647" y="-14" type="curve"/>
      <point x="610" y="-258" type="line"/>
      <point x="788" y="-258" type="line"/>
      <point x="826" y="-6" type="line"/>
      <point x="931" y="9"/>
      <point x="1024" y="40"/>
      <point x="1096" y="61" type="curve" smooth="yes"/>
      <point x="1150" y="77"/>
      <point x="1194" y="89"/>
      <point x="1232" y="93" type="curve"/>
      <point x="1315" y="734" type="line"/>
      <point x="882" y="734" type="line"/>
      <point x="862" y="570" type="line"/>
      <point x="1094" y="570" type="line"/>
      <point x="1049" y="216" type="line"/>
      <point x="941" y="167"/>
      <point x="817" y="143"/>
      <point x="729" y="143" type="curve" smooth="yes"/>
      <point x="481" y="143"/>
      <point x="401" y="400"/>
      <point x="397" y="647" type="curve" smooth="yes"/>
      <point x="392" y="952"/>
      <point x="534" y="1381"/>
      <point x="925" y="1381" type="curve" smooth="yes"/>
      <point x="1102" y="1381"/>
      <point x="1221" y="1329"/>
      <point x="1268" y="1293" type="curve"/>
      <point x="1330" y="1478" type="line"/>
      <point x="1290" y="1490" type="line"/>
      <point x="1237" y="1508"/>
      <point x="1149" y="1535"/>
    </contour>
  </outline>
</glyph>
<glyph name="rupeeIndian" format="1">
  <advance width="1394"/>
  <unicode hex="20B9"/>
  <outline>
    <contour>
      <point x="204" y="1370" type="line" name="hr01"/>
      <point x="869" y="1370" type="line" name="hr02"/>
      <point x="933" y="1330"/>
      <point x="951" y="1257"/>
      <point x="951" y="1201" type="curve" smooth="yes"/>
      <point x="951" y="1191"/>
      <point x="951" y="1182"/>
      <point x="950" y="1172" type="curve"/>
      <point x="224" y="1172" type="line"/>
      <point x="202" y="1013" type="line"/>
      <point x="918" y="1013" type="line"/>
      <point x="856" y="861"/>
      <point x="715" y="782"/>
      <point x="533" y="782" type="curve" smooth="yes"/>
      <point x="361" y="782"/>
      <point x="210" y="782"/>
      <point x="167" y="787" type="curve"/>
      <point x="147" y="624" type="line"/>
      <point x="172" y="621"/>
      <point x="254" y="615"/>
      <point x="360" y="615" type="curve" smooth="yes"/>
      <point x="434" y="615"/>
      <point x="526" y="618"/>
      <point x="625" y="627" type="curve"/>
      <point x="747" y="499"/>
      <point x="811" y="0"/>
      <point x="896" y="0" type="curve" smooth="yes"/>
      <point x="1137" y="0" type="line"/>
      <point x="998" y="184"/>
      <point x="965" y="536"/>
      <point x="835" y="672" type="curve"/>
      <point x="962" y="723"/>
      <point x="1097" y="819"/>
      <point x="1143" y="1013" type="curve"/>
      <point x="1328" y="1013" type="line"/>
      <point x="1350" y="1172" type="line"/>
      <point x="1159" y="1172" type="line"/>
      <point x="1157" y="1253"/>
      <point x="1135" y="1320"/>
      <point x="1107" y="1370" type="curve"/>
      <point x="1331" y="1370" type="line"/>
      <point x="1353" y="1530" type="line"/>
      <point x="226" y="1530" type="line"/>
    </contour>
  </outline>
</glyph>
<glyph name="uni20BA" format="1">
  <advance width="1481"/>
  <unicode hex="20BA"/>
  <outline>
    <contour>
      <point x="192" y="806" type="line" name="hr00"/>
      <point x="467" y="919" type="line"/>
      <point x="437" y="705" type="line"/>
      <point x="172" y="597" type="line"/>
      <point x="149" y="429" type="line"/>
      <point x="413" y="537" type="line"/>
      <point x="338" y="0" type="line"/>
      <point x="549" y="0" type="line" smooth="yes"/>
      <point x="977" y="0"/>
      <point x="1340" y="256"/>
      <point x="1398" y="664" type="curve" smooth="yes"/>
      <point x="1406" y="719" type="line"/>
      <point x="1194" y="719" type="line"/>
      <point x="1140" y="334"/>
      <point x="861" y="179"/>
      <point x="574" y="179" type="curve"/>
      <point x="574" y="178" type="line"/>
      <point x="573" y="180" type="line"/>
      <point x="636" y="628" type="line"/>
      <point x="1128" y="829" type="line"/>
      <point x="1151" y="997" type="line"/>
      <point x="660" y="796" type="line"/>
      <point x="690" y="1012" type="line"/>
      <point x="1205" y="1224" type="line"/>
      <point x="1229" y="1402" type="line"/>
      <point x="715" y="1190" type="line"/>
      <point x="764" y="1537" type="line"/>
      <point x="553" y="1537" type="line"/>
      <point x="492" y="1098" type="line"/>
      <point x="216" y="984" type="line"/>
    </contour>
  </outline>
</glyph>
<glyph name="uni2113" format="1">
  <advance width="1214"/>
  <unicode hex="2113"/>
  <outline>
    <contour>
      <point x="212" y="23" type="line"/>
      <point x="704" y="399"/>
      <point x="1072" y="954"/>
      <point x="1072" y="1453" type="curve" smooth="yes"/>
      <point x="1072" y="1586"/>
      <point x="1006" y="1680"/>
      <point x="892" y="1680" type="curve" smooth="yes"/>
      <point x="551" y="1680"/>
      <point x="293" y="1059"/>
      <point x="293" y="512" type="curve" smooth="yes"/>
      <point x="293" y="178"/>
      <point x="413" y="-16"/>
      <point x="600" y="-16" type="curve" smooth="yes"/>
      <point x="852" y="-16"/>
      <point x="977" y="193"/>
      <point x="1020" y="409" type="curve"/>
      <point x="858" y="434" type="line"/>
      <point x="841" y="245"/>
      <point x="730" y="145"/>
      <point x="621" y="145" type="curve" smooth="yes"/>
      <point x="540" y="145"/>
      <point x="463" y="238"/>
      <point x="463" y="514" type="curve" smooth="yes"/>
      <point x="463" y="934"/>
      <point x="651" y="1503"/>
      <point x="841" y="1503" type="curve" smooth="yes"/>
      <point x="878" y="1503"/>
      <point x="904" y="1463"/>
      <point x="904" y="1419" type="curve" smooth="yes"/>
      <point x="904" y="1038"/>
      <point x="636" y="573"/>
      <point x="86" y="131" type="curve"/>
    </contour>
    <contour>
      <point x="433" y="-170" type="move" name="btm"/>
    </contour>
    <contour>
      <point x="436" y="1700" type="move" name="top"/>
    </contour>
  </outline>
</glyph>
<glyph name="numero" format="1">
  <advance width="2497"/>
  <unicode hex="2116"/>
  <outline>
    <contour>
      <point x="1580" y="1058" type="curve" smooth="yes"/>
      <point x="1550" y="761"/>
      <point x="1696" y="570"/>
      <point x="1955" y="570" type="curve" smooth="yes"/>
      <point x="2150" y="570"/>
      <point x="2401" y="709"/>
      <point x="2435" y="1048" type="curve" smooth="yes"/>
      <point x="2465" y="1345"/>
      <point x="2320" y="1532"/>
      <point x="2061" y="1532" type="curve" smooth="yes"/>
      <point x="1865" y="1532"/>
      <point x="1613" y="1397"/>
    </contour>
    <contour>
      <point x="162" y="0" type="line"/>
      <point x="347" y="0" type="line"/>
      <point x="473" y="1009" type="line"/>
      <point x="500" y="1307" type="line"/>
      <point x="553" y="1075" type="line"/>
      <point x="1008" y="0" type="line"/>
      <point x="1201" y="0" type="line"/>
      <point x="1394" y="1530" type="line"/>
      <point x="1206" y="1530" type="line"/>
      <point x="1083" y="510" type="line"/>
      <point x="1064" y="261" type="line"/>
      <point x="1001" y="468" type="line"/>
      <point x="561" y="1530" type="line"/>
      <point x="355" y="1530" type="line"/>
    </contour>
    <contour>
      <point x="1767" y="1068" type="curve" smooth="yes"/>
      <point x="1790" y="1297"/>
      <point x="1892" y="1387"/>
      <point x="2041" y="1389" type="curve" smooth="yes"/>
      <point x="2192" y="1391"/>
      <point x="2269" y="1248"/>
      <point x="2247" y="1036" type="curve" smooth="yes"/>
      <point x="2225" y="809"/>
      <point x="2125" y="715"/>
      <point x="1974" y="713" type="curve" smooth="yes"/>
      <point x="1823" y="711"/>
      <point x="1745" y="858"/>
    </contour>
    <contour>
      <point x="1518" y="0" type="line"/>
      <point x="2291" y="0" type="line"/>
      <point x="2303" y="158" type="line"/>
      <point x="1530" y="158" type="line"/>
    </contour>
  </outline>
</glyph>
<glyph name="Omega" format="1">
  <advance width="1659"/>
  <unicode hex="2126"/>
  <outline>
    <contour>
      <point x="500" y="118" type="curve"/>
      <point x="613" y="0" type="line"/>
      <point x="653" y="139" type="line"/>
      <point x="513" y="223"/>
      <point x="350" y="456"/>
      <point x="350" y="754" type="curve" smooth="yes"/>
      <point x="350" y="1192"/>
      <point x="581" y="1390"/>
      <point x="880" y="1390" type="curve" smooth="yes"/>
      <point x="1084" y="1390"/>
      <point x="1338" y="1249"/>
      <point x="1338" y="887" type="curve" smooth="yes"/>
      <point x="1338" y="553"/>
      <point x="1135" y="259"/>
      <point x="907" y="139" type="curve"/>
      <point x="927" y="0" type="line"/>
      <point x="1051" y="100" type="line"/>
      <point x="1329" y="221"/>
      <point x="1535" y="625"/>
      <point x="1535" y="907" type="curve" smooth="yes"/>
      <point x="1535" y="1286"/>
      <point x="1254" y="1546"/>
      <point x="899" y="1546" type="curve" smooth="yes"/>
      <point x="481" y="1546"/>
      <point x="156" y="1305"/>
      <point x="156" y="759" type="curve" smooth="yes"/>
      <point x="156" y="472"/>
      <point x="350" y="189"/>
    </contour>
    <contour>
      <point x="58" y="0" type="line"/>
      <point x="613" y="0" type="line"/>
      <point x="507" y="151" type="line"/>
      <point x="77" y="151" type="line"/>
    </contour>
    <contour>
      <point x="927" y="0" type="line"/>
      <point x="1513" y="0" type="line"/>
      <point x="1526" y="161" type="line"/>
      <point x="1023" y="161" type="line"/>
    </contour>
  </outline>
</glyph>
<glyph name="Delta" format="1">
  <advance width="1407"/>
  <unicode hex="2206"/>
  <outline>
    <contour>
      <point x="-33" y="22" type="line"/>
      <point x="-21" y="0" type="line"/>
      <point x="1315" y="0" type="line"/>
      <point x="1332" y="27" type="line"/>
      <point x="763" y="1508" type="line"/>
      <point x="731" y="1508" type="line"/>
    </contour>
    <contour>
      <point x="284" y="170" type="line"/>
      <point x="725" y="1074" type="line"/>
      <point x="1052" y="170" type="line"/>
    </contour>
  </outline>
</glyph>
<glyph name="minus" format="1">
  <advance width="1266"/>
  <unicode hex="2212"/>
  <outline>
    <contour>
      <point x="218" y="693" type="line"/>
      <point x="1055" y="693" type="line"/>
      <point x="1073" y="851" type="line"/>
      <point x="236" y="851" type="line"/>
    </contour>
  </outline>
</glyph>
<glyph name="uni2215" format="1">
  <advance width="854"/>
  <unicode hex="2215"/>
  <outline>
    <contour>
      <point x="79" y="-362" type="line"/>
      <point x="942" y="1597" type="line"/>
      <point x="768" y="1597" type="line"/>
      <point x="-93" y="-362" type="line"/>
    </contour>
  </outline>
</glyph>
<glyph name="radical" format="1">
  <advance width="1602"/>
  <unicode hex="221A"/>
  <outline>
    <contour>
      <point x="173" y="458" type="line"/>
      <point x="302" y="528" type="line"/>
      <point x="696" y="-354" type="line"/>
      <point x="869" y="-354" type="line"/>
      <point x="1582" y="1870" type="line"/>
      <point x="1371" y="1870" type="line"/>
      <point x="772" y="-93" type="line"/>
      <point x="454" y="716" type="line"/>
      <point x="267" y="716" type="line"/>
      <point x="84" y="604" type="line"/>
    </contour>
  </outline>
</glyph>
<glyph name="infinity" format="1">
  <advance width="1804"/>
  <unicode hex="221E"/>
  <outline>
    <contour>
      <point x="493" y="226" type="curve" smooth="yes"/>
      <point x="672" y="228"/>
      <point x="812" y="341"/>
      <point x="903" y="467" type="curve"/>
      <point x="995" y="342"/>
      <point x="1103" y="225"/>
      <point x="1300" y="225" type="curve" smooth="yes"/>
      <point x="1571" y="225"/>
      <point x="1730" y="375"/>
      <point x="1730" y="631" type="curve" smooth="yes"/>
      <point x="1730" y="816"/>
      <point x="1603" y="1012"/>
      <point x="1314" y="1008" type="curve" smooth="yes"/>
      <point x="1138" y="1005"/>
      <point x="998" y="883"/>
      <point x="907" y="757" type="curve"/>
      <point x="812" y="886"/>
      <point x="697" y="1008"/>
      <point x="494" y="1008" type="curve" smooth="yes"/>
      <point x="265" y="1008"/>
      <point x="74" y="880"/>
      <point x="74" y="602" type="curve" smooth="yes"/>
      <point x="74" y="401"/>
      <point x="232" y="222"/>
    </contour>
    <contour>
      <point x="1008" y="623" type="curve"/>
      <point x="1092" y="751"/>
      <point x="1176" y="843"/>
      <point x="1290" y="843" type="curve" smooth="yes"/>
      <point x="1447" y="843"/>
      <point x="1532" y="737"/>
      <point x="1532" y="613" type="curve" smooth="yes"/>
      <point x="1532" y="492"/>
      <point x="1467" y="377"/>
      <point x="1334" y="377" type="curve" smooth="yes"/>
      <point x="1191" y="377"/>
      <point x="1088" y="510"/>
    </contour>
    <contour>
      <point x="516" y="378" type="curve" smooth="yes"/>
      <point x="349" y="378"/>
      <point x="272" y="485"/>
      <point x="272" y="613" type="curve" smooth="yes"/>
      <point x="272" y="730"/>
      <point x="344" y="844"/>
      <point x="514" y="844" type="curve" smooth="yes"/>
      <point x="643" y="844"/>
      <point x="728" y="710"/>
      <point x="804" y="600" type="curve"/>
      <point x="719" y="472"/>
      <point x="628" y="378"/>
    </contour>
  </outline>
</glyph>
<glyph name="notequal" format="1">
  <advance width="1063"/>
  <unicode hex="2260"/>
  <outline>
    <contour>
      <point x="153" y="0" type="line"/>
      <point x="312" y="0" type="line"/>
      <point x="923" y="1324" type="line"/>
      <point x="764" y="1324" type="line"/>
    </contour>
    <component base="equal"/>
  </outline>
</glyph>
<glyph name="lessequal" format="1">
  <advance width="1368"/>
  <unicode hex="2264"/>
  <outline>
    <contour>
      <point x="139" y="-2" type="line"/>
      <point x="1087" y="-2" type="line"/>
      <point x="1105" y="148" type="line"/>
      <point x="157" y="148" type="line"/>
    </contour>
    <contour>
      <point x="197" y="689" type="line"/>
      <point x="1093" y="246" type="line"/>
      <point x="1114" y="428" type="line"/>
      <point x="485" y="724" type="line"/>
      <point x="1183" y="1021" type="line"/>
      <point x="1204" y="1204" type="line"/>
      <point x="206" y="767" type="line"/>
    </contour>
  </outline>
</glyph>
<glyph name="greaterequal" format="1">
  <advance width="1368"/>
  <unicode hex="2265"/>
  <outline>
    <contour>
      <point x="141" y="-2" type="line"/>
      <point x="161" y="148" type="line"/>
      <point x="1109" y="148" type="line"/>
      <point x="1089" y="-2" type="line"/>
    </contour>
    <contour>
      <point x="197" y="246" type="line"/>
      <point x="221" y="440" type="line"/>
      <point x="926" y="735" type="line"/>
      <point x="299" y="1024" type="line"/>
      <point x="323" y="1204" type="line"/>
      <point x="1212" y="767" type="line"/>
      <point x="1202" y="689" type="line"/>
    </contour>
  </outline>
</glyph>
<glyph name="commaaccent" format="1">
  <advance width="367"/>
  <unicode hex="F6C3"/>
  <outline>
    <contour>
      <point x="97" y="-334" type="curve" smooth="yes"/>
      <point x="97" y="-410"/>
      <point x="77" y="-447"/>
      <point x="29" y="-484" type="curve"/>
      <point x="26" y="-510" type="line"/>
      <point x="106" y="-560" type="line"/>
      <point x="184" y="-542"/>
      <point x="288" y="-434"/>
      <point x="288" y="-270" type="curve" smooth="yes"/>
      <point x="288" y="-174"/>
      <point x="256" y="-92"/>
      <point x="180" y="-70" type="curve"/>
      <point x="31" y="-171" type="line"/>
      <point x="25" y="-225" type="line"/>
      <point x="65" y="-234"/>
      <point x="97" y="-288"/>
    </contour>
    <contour>
      <point x="167" y="-170" type="move" name="_btm"/>
    </contour>
  </outline>
</glyph>
<glyph name="breve.cap" format="1">
  <advance width="715"/>
  <outline>
    <contour>
      <point x="348" y="1629" type="curve" smooth="yes"/>
      <point x="546" y="1629"/>
      <point x="662" y="1792"/>
      <point x="684" y="1947" type="curve" smooth="yes"/>
      <point x="686" y="1958"/>
      <point x="687" y="1969"/>
      <point x="687" y="1980" type="curve"/>
      <point x="555" y="1980" type="line"/>
      <point x="532" y="1920"/>
      <point x="502" y="1776"/>
      <point x="355" y="1776" type="curve" smooth="yes"/>
      <point x="229" y="1776"/>
      <point x="204" y="1880"/>
      <point x="189" y="1949" type="curve" smooth="yes"/>
      <point x="187" y="1960"/>
      <point x="186" y="1971"/>
      <point x="185" y="1980" type="curve"/>
      <point x="50" y="1980" type="line"/>
      <point x="49" y="1974"/>
      <point x="49" y="1967"/>
      <point x="49" y="1961" type="curve" smooth="yes"/>
      <point x="49" y="1802"/>
      <point x="132" y="1629"/>
    </contour>
    <contour>
      <point x="340" y="1700" type="move" name="_top"/>
    </contour>
  </outline>
</glyph>
<glyph name="caron.cap" format="1">
  <advance width="793"/>
  <outline>
    <contour>
      <point x="293" y="1627" type="line"/>
      <point x="469" y="1627" type="line"/>
      <point x="784" y="1926" type="line"/>
      <point x="702" y="2013" type="line"/>
      <point x="389" y="1778" type="line"/>
      <point x="137" y="2013" type="line"/>
      <point x="50" y="1925" type="line"/>
    </contour>
    <contour>
      <point x="385" y="1700" type="move" name="_top"/>
    </contour>
  </outline>
</glyph>
<glyph name="caronvertical" format="1">
  <advance width="315"/>
  <outline>
    <contour>
      <point x="203" y="1075" type="line"/>
      <point x="303" y="1035" type="line"/>
      <point x="375" y="1144"/>
      <point x="421" y="1319"/>
      <point x="421" y="1450" type="curve" smooth="yes"/>
      <point x="421" y="1547"/>
      <point x="417" y="1623"/>
      <point x="393" y="1680" type="curve"/>
      <point x="216" y="1634" type="line"/>
      <point x="207" y="1602" type="line"/>
      <point x="227" y="1572"/>
      <point x="238" y="1486"/>
      <point x="238" y="1411" type="curve" smooth="yes"/>
      <point x="238" y="1304"/>
      <point x="219" y="1193"/>
      <point x="197" y="1100" type="curve"/>
    </contour>
    <contour>
      <point x="161" y="1700" type="move" name="car"/>
    </contour>
  </outline>
</glyph>
<glyph name="dieresis.cap" format="1">
  <advance width="807"/>
  <outline>
    <contour>
      <point x="171" y="1696" type="curve" smooth="yes"/>
      <point x="249" y="1696"/>
      <point x="320" y="1766"/>
      <point x="323" y="1843" type="curve" smooth="yes"/>
      <point x="325" y="1906"/>
      <point x="278" y="1959"/>
      <point x="201" y="1959" type="curve" smooth="yes"/>
      <point x="136" y="1959"/>
      <point x="61" y="1892"/>
      <point x="58" y="1815" type="curve" smooth="yes"/>
      <point x="55" y="1751"/>
      <point x="108" y="1696"/>
    </contour>
    <contour>
      <point x="590" y="1696" type="curve" smooth="yes"/>
      <point x="670" y="1696"/>
      <point x="739" y="1766"/>
      <point x="742" y="1843" type="curve" smooth="yes"/>
      <point x="745" y="1906"/>
      <point x="697" y="1959"/>
      <point x="621" y="1959" type="curve" smooth="yes"/>
      <point x="557" y="1959"/>
      <point x="475" y="1892"/>
      <point x="475" y="1815" type="curve" smooth="yes"/>
      <point x="475" y="1749"/>
      <point x="527" y="1696"/>
    </contour>
    <contour>
      <point x="376" y="1700" type="move" name="_top"/>
    </contour>
  </outline>
</glyph>
<glyph name="ij_acutecomb" format="1">
  <advance width="1163"/>
  <outline>
    <contour>
      <point x="124" y="0" type="line"/>
      <point x="319" y="0" type="line"/>
      <point x="474" y="1140" type="line"/>
      <point x="279" y="1140" type="line"/>
    </contour>
    <contour>
      <point x="385" y="1245" type="line"/>
      <point x="504" y="1291"/>
      <point x="725" y="1512"/>
      <point x="761" y="1580" type="curve"/>
      <point x="609" y="1717" type="line"/>
      <point x="302" y="1316" type="line"/>
    </contour>
    <contour>
      <point x="715" y="69" type="line"/>
      <point x="683" y="-171"/>
      <point x="637" y="-378"/>
      <point x="460" y="-378" type="curve" smooth="yes"/>
      <point x="449" y="-378"/>
      <point x="417" y="-373"/>
      <point x="406" y="-364" type="curve"/>
      <point x="354" y="-475" type="line"/>
      <point x="380" y="-493"/>
      <point x="425" y="-514"/>
      <point x="488" y="-514" type="curve" smooth="yes"/>
      <point x="701" y="-514"/>
      <point x="859" y="-315"/>
      <point x="902" y="4" type="curve" smooth="yes"/>
      <point x="1056" y="1140" type="line"/>
      <point x="861" y="1140" type="line"/>
    </contour>
    <component base="acute" xOffset="835"/>
  </outline>
</glyph>
<glyph name="tilde.cap" format="1">
  <advance width="813"/>
  <outline>
    <contour>
      <point x="96" y="1717" type="line"/>
      <point x="134" y="1757"/>
      <point x="168" y="1809"/>
      <point x="233" y="1808" type="curve" smooth="yes"/>
      <point x="344" y="1806"/>
      <point x="361" y="1668"/>
      <point x="524" y="1668" type="curve" smooth="yes"/>
      <point x="638" y="1668"/>
      <point x="758" y="1749"/>
      <point x="792" y="1851" type="curve"/>
      <point x="707" y="1940" type="line"/>
      <point x="669" y="1892"/>
      <point x="637" y="1830"/>
      <point x="563" y="1830" type="curve" smooth="yes"/>
      <point x="471" y="1830"/>
      <point x="439" y="1970"/>
      <point x="286" y="1970" type="curve" smooth="yes"/>
      <point x="182" y="1970"/>
      <point x="52" y="1887"/>
      <point x="9" y="1801" type="curve"/>
    </contour>
    <contour>
      <point x="375" y="1700" type="move" name="_top"/>
    </contour>
  </outline>
</glyph>
<glyph name="two.numr" format="1">
  <advance width="1163"/>
  <outline>
    <contour>
      <point x="215" y="637" type="line"/>
      <point x="993" y="637" type="line"/>
      <point x="1000" y="796" type="line"/>
      <point x="458" y="763" type="line"/>
      <point x="767" y="954"/>
      <point x="1016" y="1104"/>
      <point x="1016" y="1388" type="curve" smooth="yes"/>
      <point x="1016" y="1507"/>
      <point x="891" y="1650"/>
      <point x="650" y="1647" type="curve" smooth="yes"/>
      <point x="460" y="1644"/>
      <point x="307" y="1530"/>
      <point x="249" y="1450" type="curve"/>
      <point x="319" y="1356" type="line"/>
      <point x="408" y="1447"/>
      <point x="517" y="1494"/>
      <point x="630" y="1494" type="curve" smooth="yes"/>
      <point x="734" y="1494"/>
      <point x="824" y="1457"/>
      <point x="824" y="1333" type="curve" smooth="yes"/>
      <point x="824" y="1109"/>
      <point x="336" y="820"/>
      <point x="170" y="733" type="curve"/>
    </contour>
  </outline>
</glyph>
